<?xml version="1.0" encoding="UTF-8" standalone="no"?>
<!-- Created with Inkscape (http://www.inkscape.org/) -->

<svg
   version="1.1"
   id="svg1"
   width="24"
   height="24"
   viewBox="0 0 24 24"
   xmlns="http://www.w3.org/2000/svg"
   xmlns:svg="http://www.w3.org/2000/svg">
  <defs
     id="defs1" />
  <g
     id="g1"
     style="display:inline;fill:none"
     transform="matrix(0.05869044,0,0,0.05869044,-19.38557,-17.317995)">
    <g
       id="g44">
      <path
         style="display:inline;fill:#dfc3a1"
         d="m 324.15059,284.13979 434.01308,7.56393 c 21.49566,310.39242 -12.60656,421.40661 -12.60656,421.40661 L 319.10797,705.5464 Z"
         id="path47" />
      <path
         style="display:inline;fill:#9d5f39"
         d="M 356.92764,554.09389 392.226,314.39552 528.55059,304.31028 697.6522,314.39552 715.30138,503.66766 664.87515,703.02509 561.32764,715.63164 414.9178,700.50378 Z m 244.3448,90.49426 c 19.12536,-19.80951 30.36558,-42.52779 34.99877,-70.73811 2.30942,-14.06142 1.34933,-39.54981 -2.08979,-55.47997 -2.49247,-11.54522 -7.48106,-27.54978 -11.53536,-37.00807 -2.05949,-4.8046 -3.91958,-6.006 -11.06893,-7.14923 -5.11297,-0.81759 -5.1034,0.0807 0.1209,11.35724 9.35165,20.18527 14.93781,45.72619 14.93781,68.29829 0,24.13975 -4.68018,44.39355 -15.07682,65.24598 -6.30462,12.64511 -7.81564,15.17726 -15.10535,25.31338 -3.19981,4.44923 -5.81783,8.38673 -5.81783,8.75 0,1.85639 2.50272,-0.16466 10.6366,-8.58951 z m -191.73221,-130.323 c 3.55581,-2.99202 5.55541,-9.15007 4.70271,-14.48261 -0.61612,-3.85298 -7.12678,-18.94439 -8.17289,-18.94439 -0.33896,0 -2.44854,1.56835 -4.68797,3.48521 -2.23943,1.91687 -5.60939,3.77369 -7.48881,4.12627 -1.87941,0.35258 -3.65829,1.26957 -3.95307,2.03776 -0.83464,2.17501 2.55132,14.38358 5.2935,19.08654 2.44897,4.20009 6.35518,7.14713 9.57541,7.22418 0.9203,0.022 3.0493,-1.11781 4.73112,-2.53296 z m 27.7275,-19.05661 c 4.58225,-2.17442 9.90128,-8.55209 11.81383,-14.16512 2.10478,-6.17718 1.92848,-16.14677 -0.44572,-25.20527 -1.17091,-4.46748 -1.97266,-10.81191 -1.98286,-15.69098 -0.009,-4.50504 -0.44798,-8.45726 -0.97457,-8.78271 -0.52658,-0.32545 -3.20659,2.27029 -5.95557,5.76829 -2.74898,3.49801 -8.79393,9.92523 -13.43322,14.28271 -7.26734,6.82587 -8.65788,8.67463 -10.04443,13.35419 -3.18803,10.75951 -1.08377,21.82937 5.3778,28.29095 3.17555,3.17554 4.44952,3.77755 7.99407,3.77755 2.31909,0 5.76189,-0.73332 7.65067,-1.62961 z m -37.8822,-23.62039 c 4.92586,-5.09513 7.96096,-12.99752 9.25863,-24.10635 0.63324,-5.421 1.78556,-11.946 2.56069,-14.5 2.43693,-8.02949 1.90279,-9.21911 -2.08503,-4.64365 -9.88623,11.34307 -18.44384,29.91407 -18.4706,40.08333 -0.007,2.79584 0.28662,5.38334 0.65328,5.75 1.57852,1.57852 5.16877,0.43107 8.08303,-2.58333 z m 84.09207,-2.67008 c 4.62561,-2.36083 6.53467,-4.4836 9.08129,-10.0979 2.25494,-4.97125 2.6456,-11.6651 0.99149,-16.98862 -0.59701,-1.92137 -1.09692,-7.5434 -1.11091,-12.4934 -0.0393,-13.8914 -1.97677,-15.66792 -8.19495,-7.51411 -4.04303,5.30157 -11.36801,11.20718 -16.18795,13.0512 -1.6064,0.61458 -4.80925,1.12016 -7.11745,1.1235 -5.71589,0.008 -6.75502,1.5887 -6.71286,10.20963 0.0278,5.67739 0.56331,8.14832 2.62898,12.12978 6.31322,12.1684 15.98171,16.01072 26.62236,10.57992 z m 156.83222,-8.70511 c 2.41566,-3.68676 1.39331,-14.41778 -2.10785,-22.12481 l -2.83926,-6.25 h -4.62004 c -2.54102,0 -6.16906,-0.44425 -8.06231,-0.98723 -4.46287,-1.27993 -4.91268,-0.46602 -4.336,7.84582 0.84443,12.17118 4.50056,19.55157 11.36897,22.94979 4.67755,2.31427 8.47767,1.80016 10.59649,-1.43357 z m -97.37118,-0.91149 c 16.29776,-5.2292 21.93544,-19.55159 12.70936,-32.28784 -3.9934,-5.51272 -7.07127,-6.20753 -12.93993,-2.92109 -10.62331,5.94903 -24.17739,7.26457 -35.0686,3.40371 -5.80291,-2.05709 -6.98311,-0.97597 -7.71222,7.06474 -1.13635,12.53192 5.65251,22.11177 18.70859,26.39991 4.01251,1.31787 18.00022,0.36277 24.3028,-1.65943 z m 62.47144,-5.68155 c 9.57653,-5.77608 8.0861,-21.2034 -3.03917,-31.45832 -4.89199,-4.50928 -4.50194,-4.34362 -17.17502,-7.29452 -4.91697,-1.14491 -13.18972,-4.09479 -18.38389,-6.55529 -5.19417,-2.4605 -9.88616,-4.47364 -10.42663,-4.47364 -1.56869,0 -0.3609,3.54901 6.53554,19.20432 7.30365,16.57967 11.8138,23.39159 18.56119,28.03392 8.4677,5.82592 16.98483,6.73129 23.92798,2.54353 z M 430.03874,434.08815 c 2.99909,-3.1625 6.30554,-6.875 7.34768,-8.25 1.84458,-2.43376 16.4172,-25.65066 17.08275,-27.21601 1.61394,-3.79593 -15.0536,4.73674 -22.44074,11.48817 -8.90899,8.14231 -15.99605,24.72439 -12.19259,28.52784 2.28466,2.28466 4.77427,1.17442 10.2029,-4.55 z m 38.20953,-9.5 c 9.21502,-6.18974 15.38757,-18.28564 15.38757,-30.15391 0,-6.1108 -0.43828,-6.43925 -5.29966,-3.97156 -8.54451,4.33728 -16.33844,12.11949 -20.84036,20.80902 -2.45699,4.74244 -2.96554,6.74281 -2.53336,9.96491 0.97788,7.29067 5.66217,8.47235 13.28581,3.35154 z m 154.13757,-4.38029 c 4.16219,-1.11542 2.7899,-4.76192 -4.54805,-12.08523 -9.16754,-9.14923 -24.20195,-19.51505 -24.20195,-16.68657 0,1.37367 11.47567,19.16976 14.36334,22.2742 1.72516,1.85466 4.93666,4.20728 7.13666,5.22804 4.5691,2.11998 4.27129,2.06783 7.25,1.26956 z m -86.57935,-3.52236 c 12.40762,-6.84981 11.40362,-19.87357 -2.09795,-27.21429 -7.58806,-4.12559 -14.24562,-5.60769 -25.25012,-5.62119 -9.27011,-0.0114 -9.76466,0.099 -11.75,2.62299 -2.47702,3.14902 -2.86254,12.54428 -0.72412,17.64726 2.81003,6.70567 9.13734,12.02783 17.65154,14.84745 4.77245,1.58047 17.55781,0.26436 22.17065,-2.28222 z m 52.36447,-12.90419 c 1.26995,-2.05481 -0.67139,-6.17453 -5.182,-10.99673 -7.82762,-8.36835 -16.17407,-12.11355 -30.93367,-13.88047 -7.64968,-0.91577 -12.4414,-0.6064 -12.40149,0.80067 0.01,0.34835 2.14739,2.09326 4.75,3.87756 2.60262,1.7843 8.30006,5.70368 12.66097,8.70973 11.94033,8.23065 29.18386,14.59964 31.10619,11.48924 z"
         id="path46" />
      <path
         style="display:inline;fill:#044000;fill-opacity:1"
         d="M 351.88502,503.66766 392.226,294.22503 538.63584,291.70372 680.00302,367.34307 720.344,518.79553 702.69482,622.34312 553.7637,705.5464 425.00305,639.9923 Z M 566.1537,675.14995 c 2.19018,-1.47851 9.38214,-7.04901 15.98214,-12.37888 31.4072,-25.36311 46.0396,-47.70722 53.65512,-81.93292 2.00786,-9.02377 2.32621,-13.10098 2.26427,-29 -0.0623,-16.00106 -0.4377,-20.28774 -2.77886,-31.73492 -2.82115,-13.79411 -9.21913,-33.88282 -12.98312,-40.76508 -2.73427,-4.99948 -5.64706,-5.77557 -28.33552,-7.54977 -55.14275,-4.31208 -110.90394,10.34351 -157.32189,41.34857 -4.125,2.75531 -8.76805,6.17775 -10.31788,7.60543 -2.78439,2.56492 -2.81022,2.69678 -2.17342,11.09577 3.5267,46.51534 22.52258,85.29717 54.4913,111.249 20.2342,16.42589 39.78226,25.64193 68.5,32.29469 12.92845,2.99502 14.2618,2.97876 19.01786,-0.23189 z M 410.79147,514.17015 c 3.17709,-3.02124 5.15714,-10.06849 4.25732,-15.15236 -0.9091,-5.13626 -7.42006,-20.17964 -8.73401,-20.17964 -0.59605,0 -2.4917,1.36466 -4.21255,3.03258 -1.72086,1.66791 -5.34228,3.86967 -8.04761,4.89278 -4.29358,1.62377 -4.95881,2.2578 -5.23369,4.98823 -0.42278,4.19948 2.38492,13.70742 5.42628,18.37545 3.16846,4.86311 8.07409,7.9479 11.38863,7.16148 1.375,-0.32624 3.69503,-1.72958 5.15563,-3.11852 z m 26.63421,-18.24042 c 11.64417,-5.98948 16.89249,-21.342 12.67992,-37.09158 -0.95621,-3.575 -2.01559,-11.63897 -2.35416,-17.91994 -0.39138,-7.26031 -1.03688,-11.55917 -1.7722,-11.80219 -0.63613,-0.21025 -2.87764,1.77872 -4.98115,4.41993 -2.1035,2.64121 -8.19384,9.16042 -13.53408,14.48714 -12.77154,12.7392 -13.31612,13.81789 -13.32281,26.38948 -0.005,9.46064 0.17741,10.36807 2.99464,14.8943 5.01582,8.05855 12.65258,10.55128 20.28984,6.62286 z M 399.4911,473.34995 c 5.24865,-4.74184 8.76629,-13.04987 10.16664,-24.0118 0.63235,-4.95 2.02566,-12.50694 3.09623,-16.7932 1.07058,-4.28626 1.65624,-8.26286 1.30146,-8.8369 -1.63958,-2.6529 -14.40594,13.4556 -19.28869,24.33834 -3.67029,8.18038 -6.57565,19.88361 -5.75142,23.16759 0.74188,2.95588 3.20374,5.62417 5.18907,5.62417 0.78413,0 3.16315,-1.56969 5.28671,-3.4882 z m 83.8812,-3.20214 c 4.61455,-2.17391 8.96542,-6.96219 10.87892,-11.97261 1.28949,-3.37649 1.49887,-6.00886 0.96064,-12.0773 -0.37854,-4.26786 -1.0005,-12.30487 -1.38214,-17.86003 -1.04822,-15.25811 -3.2503,-16.7709 -10.66829,-7.32898 -6.47183,8.2376 -13.31149,12.65434 -21.28483,13.74477 -3.43389,0.46961 -6.57863,1.18903 -6.9883,1.5987 -0.40967,0.40967 -0.90336,4.23518 -1.09709,8.50114 -0.42529,9.36498 1.88784,15.768 7.7719,21.51364 6.59502,6.43986 13.69505,7.70322 21.80919,3.88067 z m 155.9645,-7.81276 c 4.98531,-3.49185 5.26902,-12.09088 0.77709,-23.55291 -3.09917,-7.90812 -4.22021,-9.22552 -7.21157,-8.47474 -1.31005,0.32881 -5.12222,0.10091 -8.47148,-0.50642 -4.88181,-0.88524 -6.26885,-0.84231 -6.99355,0.21646 -1.28699,1.88027 -0.003,15.26581 1.93567,20.17928 4.37268,11.08236 13.52588,16.64765 19.96384,12.13833 z m -98.4171,-1.63396 c 9.36427,-2.52675 15.07736,-6.494 18.38997,-12.77022 3.07165,-5.81972 3.02514,-11.77985 -0.14069,-18.02731 -4.34367,-8.57183 -10.37185,-11.74058 -15.45261,-8.12276 -3.79484,2.70217 -12.17873,5.60811 -18.81192,6.52041 -3.80297,0.52304 -7.35032,0.14487 -13.80176,-1.47136 -5.18501,-1.29897 -9.04803,-1.81053 -9.58876,-1.2698 -0.49805,0.49806 -1.44246,3.46529 -2.09868,6.59386 -1.44649,6.8962 -0.13645,13.14599 4.00155,19.09 3.51295,5.04618 6.76354,7.40033 13.36713,9.68076 7.08797,2.44771 14.48996,2.37914 24.13577,-0.22358 z m 65.45537,-6.51418 c 4.39083,-3.27284 6.7014,-8.10246 6.6064,-13.80888 -0.10931,-6.56558 -2.20264,-11.34457 -7.47443,-17.06378 -5.08988,-5.52187 -9.64137,-8.02487 -16.39467,-9.01592 -5.65266,-0.82954 -16.92162,-4.81056 -26.41261,-9.33087 -7.69021,-3.66265 -9.9232,-3.01232 -7.62225,2.21988 0.7621,1.73294 3.23665,7.42581 5.49901,12.65081 9.98159,23.05282 14.14182,28.86665 24.33839,34.01235 5.41166,2.73099 7.03258,3.09092 12.46016,2.76681 4.2934,-0.25638 7.10023,-1.01435 9,-2.4304 z M 431.22302,434.67904 c 6.34413,-6.09194 24.51511,-32.98395 24.7901,-36.68792 0.3594,-4.84104 -15.8913,2.57078 -25.64973,11.69864 -5.08188,4.75351 -11.36234,16.0319 -12.33349,22.14839 -0.30565,1.925 -0.0805,4.7375 0.50036,6.25 1.77916,4.63288 5.30369,3.68624 12.69276,-3.40911 z m 38.03441,-8.91604 c 4.86569,-3.00716 10.82098,-10.81905 13.30113,-17.44785 2.8782,-7.69269 3.834,-18.60409 1.77903,-20.30956 -3.90699,-3.24251 -22.32638,11.27814 -27.36188,21.57032 -3.64982,7.45997 -3.77585,14.68103 -0.30528,17.49133 2.93484,2.3765 7.37604,1.91631 12.587,-1.30424 z m 155.80698,-5.49628 c 2.37258,-2.37258 1.97102,-3.7151 -2.86059,-9.56369 -5.46498,-6.61527 -10.80687,-11.04034 -20.704,-17.15059 -12.00414,-7.41106 -12.33991,-6.78485 -3.74449,6.98341 7.13423,11.42773 11.69477,16.50625 17.32572,19.29359 4.87871,2.41497 7.87445,2.54619 9.98336,0.43728 z m -92.55497,-0.98367 c 6.61134,-1.96336 12.563,-7.62821 13.55175,-12.89869 2.14646,-11.44161 -13.57582,-23.02918 -32.92535,-24.26651 -10.86253,-0.69461 -15.79776,0.72067 -17.89034,5.13044 -3.61839,7.6252 -1.36617,17.87915 5.42524,24.70006 8.03744,8.07236 20.04216,10.83789 31.8387,7.3347 z m 56.95839,-16.28984 c 0.1826,-1.28972 -0.21266,-3.65986 -0.87834,-5.26696 -1.72093,-4.15469 -10.98081,-12.28263 -17.51465,-15.37363 -11.33124,-5.36053 -36.77974,-7.57807 -33.63622,-2.93099 1.19673,1.76912 19.84609,15.20126 25.66577,18.48568 7.71033,4.35144 18.36454,7.98476 22.53145,7.68371 2.81978,-0.20373 3.56452,-0.7086 3.83199,-2.59781 z M 482.04401,373.82997 c 1.77054,-1.77053 -1.98458,-13.47357 -8.82484,-27.50312 -6.02619,-12.35989 -14.36355,-24.4887 -16.83355,-24.4887 -1.28669,0 -6.74978,4.96481 -6.74978,6.13413 0,0.41798 2.27034,3.75949 5.0452,7.4256 5.75035,7.59726 14.23249,24.52132 16.0081,31.94027 0.65816,2.75 1.80683,5.98355 2.55258,7.18567 1.16909,1.88451 1.79707,2.05915 4.55757,1.26745 1.7609,-0.50502 3.67103,-1.3876 4.24472,-1.9613 z"
         id="path45" />
      <path
         id="path44"
         style="display:none;fill:#044000;fill-opacity:1"
         d="M 26.636719,11.837891 V 523.83789 1035.8379 H 538.63672 1050.6367 V 523.83789 11.837891 H 538.63672 Z M 454.61719,302.94727 c 0.71435,-0.0462 1.5099,0.024 2.52734,0.13867 4.98242,0.56159 11.42881,5.25136 14.7168,10.70508 1.17637,1.95123 3.79267,5.57187 5.81445,8.04687 4.11462,5.037 12.96094,20.21706 12.96094,22.24219 0,0.7217 0.58787,2.20029 1.30859,3.28515 0.72072,1.08488 1.93938,3.99766 2.70703,6.47266 0.76764,2.475 2.19418,6.34489 3.16993,8.59961 l 1.77343,4.09961 7.26953,-1.47852 c 9.11131,-1.85408 42.32808,-2.13047 54.1211,-0.74609 -0.042,-0.0546 -0.0848,-0.10833 -0.125,-0.16602 l 3.6045,-0.58746 c 5.36831,0.25104 7.84733,1.11187 4.77826,2.39021 18.36087,5.14406 22.63321,6.63446 34.32227,12.6914 9.22711,4.78125 12.79774,7.31827 23.42187,16.6504 8.9697,7.87889 15.19372,15.87461 21.48047,27.59375 6.85016,12.76937 9.26966,20.56264 9.45898,30.45312 0.14453,7.55083 -0.0592,8.37899 -3.65429,14.75 -2.09492,3.7125 -4.10944,6.76254 -4.47461,6.77734 -0.36516,0.0148 -2.14979,1.25996 -3.9668,2.76758 l -3.30273,2.74219 4.05273,12.30078 c 2.22951,6.7656 4.05469,13.19684 4.05469,14.29297 0,1.09612 0.62219,4.1033 1.38281,6.68164 5.23039,17.72982 6.08175,53.2955 1.62109,67.6875 -0.51139,1.65 -1.66402,6.60001 -2.5625,11 -2.38992,11.70375 -12.78097,34.94325 -20.19531,45.16992 -8.47776,11.69349 -18.32585,23.50306 -22.89062,27.44922 -2.67099,2.30903 -5.30547,4.75182 -5.85547,5.42774 -0.55,0.67591 -3.025,2.74926 -5.5,4.60742 -2.475,1.85816 -8.77501,6.78745 -14,10.95508 -5.225,4.16763 -11.6965,8.54844 -14.37891,9.73437 -6.54886,2.89534 -4.00444,3.21981 -35.62109,-4.54883 -13.48675,-3.31387 -29.12943,-9.3338 -43.14844,-16.60742 -21.49145,-11.15064 -57.1225,-48.15541 -62.38086,-64.78516 -0.41777,-1.32121 -1.81937,-3.79418 -3.11523,-5.49609 -1.29586,-1.70192 -2.35547,-3.42891 -2.35547,-3.83789 0,-0.40898 -1.62863,-4.41715 -3.61719,-8.90625 -4.71346,-10.64047 -10.53786,-34.96647 -12.25,-51.16211 l -0.63281,-6 -4,-0.55469 c -5.06563,-0.70257 -7.70845,-2.1226 -14.27734,-7.67968 -5.78027,-4.88993 -7.07842,-6.93127 -10.07227,-15.81836 -3.35041,-9.94554 -4.48424,-18.97975 -3.81641,-30.41407 1.06592,-18.2501 3.25501,-26.8079 10.57422,-41.32812 6.80798,-13.50599 27.39895,-36.22626 38.0918,-42.03125 1.925,-1.04505 5.525,-3.33557 8,-5.0918 5.17913,-3.67504 23.80522,-12.58203 26.3125,-12.58203 2.33698,0 2.13953,-1.7789 -1.3457,-12.09766 -3.18037,-9.41615 -8.91972,-19.11315 -16.10938,-27.22265 -3.88248,-4.37919 -4.30857,-5.38705 -4.66797,-11.03125 -0.37252,-5.85029 -0.20016,-6.44589 2.95703,-10.20703 1.84396,-2.19668 6.21816,-6.62187 9.72071,-9.83399 4.54995,-4.17267 5.97021,-5.35938 8.11328,-5.49804 z m 2.23437,5.92578 c -2.84976,0.0589 -5.74529,2.19902 -10.41406,7.69531 -6.25205,7.36018 -7.13674,9.25848 -5.86719,12.59766 0.88515,2.32812 1.34557,2.59205 2.98828,1.71289 1.06795,-0.57155 2.21513,-1.8998 2.54883,-2.95118 0.33369,-1.05137 1.71481,-2.63655 3.06836,-3.52343 1.35355,-0.88689 2.46094,-2.26172 2.46094,-3.05469 0,-0.79297 0.89519,-1.91981 1.99023,-2.50586 2.82546,-1.51214 7.24961,1.00002 10.07422,5.7207 1.24207,2.07583 3.16272,4.78421 4.26758,6.01953 1.10487,1.23533 2.25585,1.99806 2.55859,1.69532 0.30273,-0.30273 -0.0792,-0.93991 -0.84961,-1.41602 -0.77036,-0.47612 -1.50193,-1.46383 -1.625,-2.19531 -0.12306,-0.73148 -0.54075,-2.11758 -0.92773,-3.08008 -0.49557,-1.23257 -0.22754,-1.75 0.9043,-1.75 2.0364,0 2.01772,-0.27504 -0.33399,-4.88477 -2.27121,-4.45193 -8.38049,-10.13097 -10.84375,-10.08007 z m -9.71484,27.96484 c -0.275,0 -0.5,0.225 -0.5,0.5 0,0.275 0.225,0.5 0.5,0.5 0.275,0 0.5,-0.225 0.5,-0.5 0,-0.275 -0.225,-0.5 -0.5,-0.5 z m 8.82226,7.20508 c -0.20613,-0.0261 -0.32226,0.11443 -0.32226,0.42773 0,0.56834 0.29935,1.33452 0.66601,1.70118 0.36667,0.36666 0.89943,0.43456 1.1836,0.15039 0.28416,-0.28416 -0.0171,-1.05034 -0.66797,-1.70118 -0.35878,-0.35878 -0.65324,-0.55199 -0.85938,-0.57812 z m 22.50196,3.03711 c -1.01787,0.13214 -0.73839,1.68915 0.72461,5.48633 l 1.83984,4.77148 0.71094,-3.41016 c 0.83104,-3.97958 0.35234,-5.70142 -1.82031,-6.53515 -0.63196,-0.24251 -1.11579,-0.35655 -1.45508,-0.3125 z m -16.62891,13.01172 c -0.12083,0.12083 -0.19531,0.37943 -0.19531,0.74609 0,0.73337 0.29935,1.03268 0.66601,0.66602 0.36667,-0.36667 0.36667,-0.96537 0,-1.33203 -0.18333,-0.18333 -0.34987,-0.20092 -0.4707,-0.0801 z m 4.56055,3.61523 c -0.3222,-0.22736 -0.60627,-0.11105 -0.87891,0.33008 -0.44633,0.72219 -0.092,2.0119 0.83399,3.03516 2.13949,2.36411 2.64611,1.64564 1.15234,-1.63282 -0.42544,-0.93374 -0.78523,-1.50505 -1.10742,-1.73242 z m 22.74414,0.63086 c -1.49896,0 -2,0.66764 -2,2.66211 0,1.46362 -0.3375,3.00048 -0.75,3.41602 -1.50479,1.51587 -0.79379,6.26495 1,6.67968 2.83699,0.65593 4.36463,-2.27576 4.04297,-7.75781 -0.24852,-4.23554 -0.59876,-5 -2.29297,-5 z m 30.20508,6.66016 c -1.62688,0.03 -3.72435,0.18978 -6.41016,0.4375 -7.6397,0.70463 -9.79492,1.23257 -9.79492,2.40234 0,1.23968 1.41992,1.43933 8.1875,1.15039 6.37335,-0.27211 8.70111,0.0113 10.5,1.2793 2.23489,1.57534 2.32328,1.54228 2.64062,-1.02149 0.40503,-3.27231 -0.24241,-4.33806 -5.12304,-4.24804 z m -50.63477,0.33984 -0.11133,2.5 c -0.0616,1.375 -0.26301,3.2875 -0.44726,4.25 -0.43477,2.2712 1.14487,2.26098 2.36328,-0.0156 0.64303,-1.20151 0.5054,-2.5607 -0.42969,-4.25 z m 66.26172,0.83399 c -0.36667,0.36666 -0.0654,0.66601 0.66797,0.66601 0.73336,0 1.03268,-0.29935 0.66601,-0.66601 -0.36666,-0.36666 -0.96731,-0.36666 -1.33398,0 z m 26.91797,3.76562 -2.75,0.0996 2.5,0.80078 c 1.375,0.44035 2.6125,0.84559 2.75,0.90039 0.1375,0.0548 0.25,-0.35039 0.25,-0.90039 0,-0.55 -1.2375,-0.95519 -2.75,-0.90039 z m -53.75,2.90039 c -0.275,0 -0.5,0.225 -0.5,0.5 0,0.275 0.225,0.5 0.5,0.5 0.275,0 0.5,-0.225 0.5,-0.5 0,-0.275 -0.225,-0.5 -0.5,-0.5 z m -30.91797,0.23438 c -0.27759,0.0491 -0.19493,0.23079 0.25,0.54492 1.08341,0.76491 1.03647,1.05712 -0.25,1.55078 -0.87111,0.33428 -1.58203,0.1714 -1.58203,-0.36133 0,-1.50996 -3.40967,-1.13879 -5.56055,0.60547 -1.06762,0.86578 -1.40962,1.3101 -0.76172,0.98633 0.6479,-0.32378 1.4378,0.2303 1.75586,1.23242 0.47261,1.48908 1.59146,1.80593 6.125,1.73633 8.30817,-0.12759 9.67367,-4.37814 1.94141,-6.04492 -1.00071,-0.21572 -1.64038,-0.29916 -1.91797,-0.25 z m 27.23047,0.082 c -0.79774,0.31922 -0.56142,0.55747 0.60351,0.60547 1.05417,0.0434 1.6448,-0.1931 1.3125,-0.52539 -0.33229,-0.33225 -1.19414,-0.36895 -1.91601,-0.0801 z m 14.6875,0.68359 c -0.275,0 -0.5,0.225 -0.5,0.5 0,0.275 0.225,0.5 0.5,0.5 0.275,0 0.5,-0.225 0.5,-0.5 0,-0.275 -0.225,-0.5 -0.5,-0.5 z m -72.51563,10.08399 c -1.34962,-0.0686 -3.04252,0.41097 -5.03515,1.4414 -3.70532,1.9161 -3.80089,4.2122 -0.19922,4.75781 4.90624,0.74323 5.25,0.73058 5.25,-0.21484 0,-0.51294 0.89847,-1.21937 1.99805,-1.56836 1.62425,-0.51552 1.80525,-0.9961 0.96484,-2.56641 -0.62259,-1.1633 -1.62889,-1.78103 -2.97852,-1.8496 z m 7.23243,0.15429 c -0.14664,0.11169 -0.19693,0.602 -0.20313,1.51172 -0.008,1.2375 0.43633,2.25 0.98633,2.25 1.25292,0 1.25292,-1.06124 0,-3 -0.39194,-0.60648 -0.63657,-0.87341 -0.7832,-0.76172 z m 149.11523,1.09571 c -0.36667,0.36666 -0.0654,0.66601 0.66797,0.66601 0.73336,0 1.03268,-0.29935 0.66601,-0.66601 -0.36666,-0.36666 -0.96731,-0.36666 -1.33398,0 z m 5.94336,0.86132 c -0.24808,0.006 -0.27539,0.41897 -0.27539,1.24024 0,0.95958 1.00888,2.56188 2.24219,3.56054 1.61494,1.3077 2.73416,1.55245 4,0.875 2.95652,-1.58228 1.85675,-3.5833 -1.61914,-2.94726 -0.48134,0.0881 -1.71885,-0.60392 -2.75,-1.53711 -0.88253,-0.79867 -1.34958,-1.19776 -1.59766,-1.19141 z m -145.08008,3.0586 c -0.12083,0.12083 -0.19531,0.37943 -0.19531,0.74609 0,0.73337 0.29935,1.03268 0.66601,0.66602 0.36667,-0.36667 0.36667,-0.96537 0,-1.33203 -0.18333,-0.18333 -0.34987,-0.20092 -0.4707,-0.0801 z m -29.00195,1.36523 c -0.50941,-0.31483 -1.7311,0.31727 -2.71485,1.4043 -2.03893,2.253 -0.8801,2.59583 1.83008,0.54101 0.99541,-0.75471 1.39417,-1.63048 0.88477,-1.94531 z m -3.13477,7.38086 c -0.58245,0 -1.05859,0.45 -1.05859,1 0,0.55 0.19691,1 0.43945,1 0.24254,0 0.72063,-0.45 1.06055,-1 0.33992,-0.55 0.14105,-1 -0.44141,-1 z m -10.09961,0.68555 c -1.18458,0.42127 -2.69722,1.95647 -4.01562,4.41992 -0.574,1.07252 -1.47018,1.68861 -1.99024,1.36719 -0.52007,-0.32142 -1.45482,0.53083 -2.07617,1.89453 -0.62135,1.36371 -2.1912,2.74622 -3.49023,3.07226 -1.29904,0.32604 -3.10141,1.72121 -4.00586,3.10157 -1.53507,2.3428 -1.52888,2.6399 0.11914,4.46093 2.13819,2.36268 3.86584,1.59224 3.11719,-1.39062 -0.41125,-1.63855 0.48665,-3.14154 3.66797,-6.13867 2.31751,-2.18335 4.55234,-3.85771 4.96484,-3.72071 0.4125,0.13701 0.75,-0.20195 0.75,-0.75195 0,-0.55 0.3375,-0.9291 0.75,-0.8418 1.75346,0.37117 4.25,-1.51088 4.25,-3.20507 0,-1.9946 -0.85644,-2.68885 -2.04102,-2.26758 z m 154.15235,1.66601 c -0.59427,-0.16363 -1.20119,-0.14644 -1.75586,0.0664 -1.53067,0.58738 -1.5802,0.82927 -0.32813,1.62109 0.80959,0.51199 2.3552,0.93732 3.43555,0.94532 1.81897,0.0142 1.84378,-0.10545 0.32812,-1.6211 -0.5045,-0.5045 -1.08541,-0.84808 -1.67968,-1.01172 z m -147.72071,2.31836 c -0.0935,-0.15345 -0.70378,0.12659 -1.92187,0.69141 -1.34997,0.62597 -2.45694,1.70117 -2.46094,2.38867 -0.012,1.91901 1.31002,1.43565 3.20313,-1.16992 0.84976,-1.16956 1.27315,-1.7567 1.17968,-1.91016 z m 199.95118,4.6543 c -0.28863,0.28863 -0.22615,1.4658 0.13867,2.61523 0.70252,2.21347 2.51953,1.89648 2.51953,-0.43945 0,-1.51721 -1.8239,-3.01009 -2.6582,-2.17578 z m -81.8418,0.67578 c -0.275,0 -0.5,0.225 -0.5,0.5 0,0.275 0.225,0.5 0.5,0.5 0.275,0 0.5,-0.225 0.5,-0.5 0,-0.275 -0.225,-0.5 -0.5,-0.5 z m -2.79102,3.35156 c -0.79153,-0.10769 -1.70898,0.92991 -1.70898,2.33008 0,1.27119 0.27761,1.33289 1.48828,0.32813 0.81894,-0.67967 1.23859,-1.64203 0.93164,-2.13868 -0.19723,-0.31911 -0.44709,-0.48363 -0.71094,-0.51953 z m 97.85547,8.36133 c -5.42537,0.39477 -5.75816,0.91341 -3.10156,4.82813 1.34728,1.98532 2.72005,4.58923 3.05078,5.78515 0.33073,1.19591 1.3613,3.95505 2.28906,6.13086 1.87641,4.40059 2.64847,3.07162 2.02344,-3.48242 -0.19962,-2.09317 -0.0183,-3.59322 0.4043,-3.33203 1.08855,0.67276 0.95868,-3.04438 -0.14649,-4.19141 -0.50342,-0.5225 -1.06732,-2.07617 -1.25195,-3.45117 -0.27966,-2.0827 -0.82472,-2.46486 -3.26758,-2.28711 z m -17.43164,0.34375 c -1.30566,-0.0971 -2.13281,0.18684 -2.13281,0.875 0,0.51175 1.0125,1.12492 2.25,1.36328 1.2375,0.23835 3.6,0.4759 5.25,0.5293 l 3,0.0977 -3.36524,-1.46094 c -1.91251,-0.83034 -3.69628,-1.30724 -5.00195,-1.4043 z m 18.0625,4.19727 c 0.12083,-0.12083 0.28737,-0.10325 0.4707,0.0801 0.36667,0.36666 0.36667,0.96536 0,1.33203 -0.36666,0.36666 -0.66601,0.0673 -0.66601,-0.66602 0,-0.36668 0.0745,-0.62526 0.19531,-0.74609 z m -208.50781,7.09961 c -0.80616,-0.80616 -4.66721,3.87306 -4.03711,4.89257 0.90661,1.46693 2.40593,0.72409 3.5332,-1.75 0.62755,-1.37731 0.8545,-2.79198 0.50391,-3.14257 z m -40.79688,3.64648 c -3.62397,0 -5.10226,5.06621 -2.64062,9.04883 1.17671,1.90377 1.28036,1.82957 1.77148,-1.26367 0.28695,-1.80725 0.0619,-3.63174 -0.5,-4.05469 -0.64409,-0.48478 -0.30572,-1.31638 0.91797,-2.25 1.45662,-1.11134 1.57011,-1.48047 0.45117,-1.48047 z m 58.92774,0.5 -0.96875,3.37305 c -0.5335,1.85457 -0.73225,3.99207 -0.44141,4.75 1.0137,2.64164 1.5896,1.34409 1.5,-3.37305 z m 193.68164,5.5 c -0.275,0 -0.5,0.225 -0.5,0.5 0,0.275 0.225,0.5 0.5,0.5 0.275,0 0.5,-0.225 0.5,-0.5 0,-0.275 -0.225,-0.5 -0.5,-0.5 z m -259.64258,5 c -2.70918,0 -6.80529,17.78793 -6.83789,29.69141 -0.0202,7.37238 0.5545,8.80797 2.93945,7.33398 1.9799,-1.22364 4.04102,1.27749 4.04102,4.9043 0,1.68929 0.40774,3.07031 0.90625,3.07031 0.9591,0 0.66859,-2.17291 -1.0918,-8.16211 -0.93126,-3.16832 -0.79253,-4.05866 1.0293,-6.61719 1.8091,-2.54064 2.01986,-3.86343 1.50391,-9.38867 -0.33463,-3.58354 -0.0923,-8.79885 0.54687,-11.7793 0.99636,-4.64584 0.92666,-5.59235 -0.5293,-7.20117 -0.92188,-1.01867 -2.05043,-1.85156 -2.50781,-1.85156 z m 261.45313,0.0801 c -0.2739,-0.16568 -0.58139,-0.14323 -0.88477,0.16015 -0.37477,0.37477 -1.01364,2.49891 -1.41992,4.72071 -0.40629,2.2218 -0.3492,4.03906 0.12695,4.03906 0.47615,0 0.86719,-0.40774 0.86719,-0.90625 0,-0.49853 0.83718,-0.68774 1.86133,-0.41992 1.11731,0.29218 2.10482,-0.14537 2.46875,-1.09375 0.33358,-0.86931 0.16946,-1.58008 -0.36328,-1.58008 -0.53274,0 -0.9668,0.47613 -0.9668,1.05859 0,0.58246 -0.45242,0.7803 -1.00391,0.43946 -0.63785,-0.3942 -0.66375,-1.25442 -0.0703,-2.36328 0.73313,-1.36988 0.20644,-3.55765 -0.61523,-4.05469 z m -79.49805,5.23633 c -0.79774,0.31922 -0.56142,0.55747 0.60351,0.60547 1.05417,0.0434 1.6448,-0.1931 1.3125,-0.52539 -0.33229,-0.33225 -1.19414,-0.36895 -1.91601,-0.0801 z m 38.51953,0.0176 c -0.36667,0.36666 -0.0654,0.66601 0.66797,0.66601 0.73336,0 1.03268,-0.29935 0.66601,-0.66601 -0.36666,-0.36666 -0.96731,-0.36666 -1.33398,0 z m -86.75,6.67382 c -0.70146,0.0718 -1.13403,0.88625 -0.8457,2.39453 0.34258,1.79208 -0.0733,2.56958 -1.63867,3.06641 -2.09704,0.66558 -2.7495,2.54738 -1.36329,3.93359 0.40439,0.40439 1.47267,-0.17668 2.375,-1.29101 0.90233,-1.11433 1.85815,-1.80982 2.12305,-1.54492 0.26491,0.2649 1.02682,-0.17539 1.69336,-0.97852 0.90273,-1.08772 0.9302,-1.98605 0.10742,-3.52344 -0.78025,-1.45791 -1.74971,-2.12846 -2.45117,-2.05664 z m 108.75,1.32618 c -0.36667,0.36666 -0.0654,0.66601 0.66797,0.66601 0.73336,0 1.03268,-0.29935 0.66601,-0.66601 -0.36666,-0.36666 -0.96731,-0.36666 -1.33398,0 z m -94.97852,1.02734 c -0.52743,-0.17825 -1.46325,-0.07 -3.10351,0.22656 -4.36744,0.7896 -4.65156,0.95486 -3.85352,2.2461 0.32854,0.53158 2.17308,0.96679 4.09961,0.96679 2.8033,0 3.50391,-0.38847 3.50391,-1.94531 0,-0.85089 -0.11905,-1.31589 -0.64649,-1.49414 z m 22.14649,1.63867 c -0.275,0 -0.5,0.225 -0.5,0.5 0,0.275 0.225,0.5 0.5,0.5 0.275,0 0.5,-0.225 0.5,-0.5 0,-0.275 -0.225,-0.5 -0.5,-0.5 z m 24,0 c -0.275,0 -0.5,0.225 -0.5,0.5 0,0.275 0.225,0.5 0.5,0.5 0.275,0 0.5,-0.225 0.5,-0.5 0,-0.275 -0.225,-0.5 -0.5,-0.5 z m -16.6875,0.31641 c -0.79774,0.31922 -0.56142,0.55747 0.60351,0.60547 1.05417,0.0434 1.6448,-0.1931 1.3125,-0.52539 -0.33229,-0.33225 -1.19414,-0.36895 -1.91601,-0.0801 z m -58.3125,3.68359 c -0.275,0 -0.5,0.225 -0.5,0.5 0,0.275 0.225,0.5 0.5,0.5 0.275,0 0.5,-0.225 0.5,-0.5 0,-0.275 -0.225,-0.5 -0.5,-0.5 z m 115.99023,0.44727 c -0.3305,-0.006 -0.49023,0.16665 -0.49023,0.51757 0,0.56935 0.675,1.03516 1.5,1.03516 0.825,0 1.5,0.45 1.5,1 0,0.55 0.225,1 0.5,1 1.30355,0 0.27981,-2.04747 -1.5,-3 -0.678,-0.36286 -1.17927,-0.54692 -1.50977,-0.55273 z m -94.07812,0.16015 c -0.3625,-0.0695 -0.86211,-0.0403 -1.41211,0.10352 -1.1,0.28766 -2,0.6954 -2,0.90625 0,0.21085 0.9,0.38281 2,0.38281 1.1,0 2,-0.40774 2,-0.90625 0,-0.24925 -0.22539,-0.41684 -0.58789,-0.48633 z m -7.91211,1.39258 c -0.275,0 -0.5,0.225 -0.5,0.5 0,0.275 0.225,0.5 0.5,0.5 0.275,0 0.5,-0.225 0.5,-0.5 0,-0.275 -0.225,-0.5 -0.5,-0.5 z m -119.60938,3.52539 c -0.62659,-0.0721 -1.35965,0.0832 -2.32226,0.44922 -3.48881,1.32644 -3.24395,2.35196 0.43164,1.8125 1.65,-0.24217 3,-0.0419 3,0.44531 0,0.4872 0.45164,0.6062 1.00586,0.26367 0.6298,-0.38924 0.46906,-1.16179 -0.42969,-2.06054 -0.53867,-0.53867 -1.05895,-0.83808 -1.68555,-0.91016 z m 70.99024,0.70117 c -0.91096,-0.22312 -2.13238,-0.11512 -4.18946,0.19336 -3.06806,0.46008 -5.16986,1.42322 -6.14843,2.82031 -2.131,3.04244 -0.29464,4.73102 5.32812,4.89649 2.54516,0.0749 3.61641,0.33001 2.37891,0.56836 -1.2375,0.23836 -2.25,1.07848 -2.25,1.86523 0,0.78675 -0.9,1.42969 -2,1.42969 -1.1,0 -2,-0.6126 -2,-1.36133 0,-0.93402 -0.8347,-1.20172 -2.65625,-0.85351 -2.30413,0.44046 -2.58217,0.22913 -2.10547,-1.59375 0.71862,-2.74801 -3.6685,-6.12087 -4.64648,-3.57227 -0.32591,0.84931 -0.5918,2.26056 -0.5918,3.13477 0,0.87421 -0.74601,2.41216 -1.65625,3.41797 -0.9902,1.09415 -1.19104,1.82812 -0.5,1.82812 0.63524,0 1.15625,0.9 1.15625,2 0,1.11111 0.66666,2 1.5,2 0.93333,0 1.5,0.94444 1.5,2.5 0,2.99545 1.61602,3.15346 5,0.48633 2.08598,-1.64409 2.25477,-2.12866 1.02734,-2.92383 -1.89256,-1.22606 -1.17634,-1.88153 2.95117,-2.70703 2.39865,-0.47973 3.13147,-0.34383 2.61719,0.48828 -0.39299,0.63586 -0.35121,1.1295 0.0937,1.0957 1.61211,-0.1223 10.77605,-4.77447 9.56445,-4.85546 -0.84263,-0.0564 -1.07268,-1.16385 -0.71289,-3.42774 0.37664,-2.36994 -0.0101,-4.01299 -1.32812,-5.64062 -0.82052,-1.0133 -1.42107,-1.56594 -2.33203,-1.78907 z m 25.66992,0.43164 c -0.87659,-0.33638 -1.69409,0.21337 -2.06836,1.39258 -0.59117,1.86263 -2.48242,2.77188 -2.48242,1.19336 0,-0.41542 -1.53947,-1.23565 -3.41992,-1.82422 -3.11703,-0.97562 -3.51163,-0.86706 -4.47266,1.24219 -0.57974,1.27247 -0.814,2.9416 -0.51953,3.70898 0.4498,1.17215 1.20452,1.18982 4.72266,0.10938 9.48309,-2.9123 11.71552,-4.48868 8.24023,-5.82227 z m -84.28125,0.73829 c -0.225,0.22499 0.14407,2.25658 0.82031,4.51367 0.67624,2.25708 1.41367,3.91836 1.63867,3.69336 0.225,-0.225 -0.14407,-2.25463 -0.82031,-4.51172 -0.67624,-2.25709 -1.41367,-3.92031 -1.63867,-3.69531 z m -19.9375,5.9375 c -0.36667,0.36666 -0.0654,0.66601 0.66797,0.66601 0.73336,0 1.03268,-0.29935 0.66601,-0.66601 -0.36666,-0.36666 -0.96731,-0.36666 -1.33398,0 z m 247.17969,5.00585 c -0.28565,-0.0905 -0.4676,0.1509 -0.48047,0.82618 -0.0175,0.91666 -0.56206,1.8449 -1.20899,2.06054 -0.64692,0.21564 -1.67555,2.16434 -2.2871,4.33203 -0.9302,3.29719 -0.78494,4.95064 0.89453,10.11524 1.10414,3.39539 2.38027,5.94373 2.83593,5.66211 0.45566,-0.28161 0.75572,-1.26005 0.66602,-2.17383 -0.0896,-0.91378 -0.105,-2.33711 -0.0332,-3.16211 0.11067,-1.27238 0.26789,-1.28572 1.02734,-0.0859 1.66273,2.62677 3.43485,-5.85933 2.18945,-10.48437 -0.95641,-3.55186 -2.74656,-6.8182 -3.60351,-7.08985 z m -7.01172,3.66016 c -0.275,0 -0.5,0.225 -0.5,0.5 0,0.275 0.225,0.5 0.5,0.5 0.275,0 0.5,-0.225 0.5,-0.5 0,-0.275 -0.225,-0.5 -0.5,-0.5 z m -191,7.35352 c -0.55,-0.19456 -1,1.22148 -1,3.14648 0,1.925 0.0427,3.5 0.0957,3.5 0.053,0 1.5069,-0.70268 3.23047,-1.5625 3.97415,-1.98257 5.20193,-3.77868 1.66406,-2.43359 -3.45603,1.31399 -3.62943,1.27846 -3.28515,-0.65039 0.16161,-0.90544 -0.15508,-1.80544 -0.70508,-2 z m -9.19727,9.28515 c -1.03373,-0.26782 -2.43943,-0.15737 -3.92187,0.40625 -2.15458,0.81917 -2.38741,1.24337 -1.36719,2.47266 1.90729,2.29815 6.98633,1.55809 6.98633,-1.01758 0,-0.9477 -0.66353,-1.59351 -1.69727,-1.86133 z m -38.11328,2.55274 c -0.0761,0.0761 -0.006,0.29664 0.21485,0.65429 0.71243,1.15275 1.5957,1.54703 1.5957,0.71289 0,-0.24254 -0.52127,-0.76185 -1.15625,-1.15429 -0.35765,-0.22104 -0.57821,-0.28899 -0.6543,-0.21289 z m 20.57422,2.05859 c -1.10897,0.2663 -1.97097,1.77305 -1.42969,3.18359 0.33077,0.86197 1.29056,1.56641 2.13282,1.56641 1.74768,0 2.09361,-3.53402 0.44531,-4.55273 -0.38227,-0.23626 -0.77878,-0.28604 -1.14844,-0.19727 z m 226.61719,6.31445 c -1.58738,-0.0244 -2.42104,1.43448 -1.83203,3.78125 0.76532,3.04928 1.66277,3.30013 3.8789,1.08399 2.04293,-2.04293 1.98412,-3.13796 -0.23242,-4.32422 -0.67193,-0.35961 -1.28533,-0.53287 -1.81445,-0.54102 z m -235.97461,4.10938 c -0.76802,0.29473 -1.1461,0.93928 -0.8418,1.43164 0.69796,1.12935 3.43555,1.17731 3.43555,0.0606 0,-1.40728 -1.12746,-2.05486 -2.59375,-1.49219 z m 16.89844,2.92773 c -0.0914,0.22657 -0.14844,0.71094 -0.14844,1.39844 0,1.375 0.22845,1.9375 0.50586,1.25 0.27741,-0.6875 0.27741,-1.8125 0,-2.5 -0.13871,-0.34375 -0.266,-0.375 -0.35742,-0.14844 z m -8.18555,0.23828 -0.66992,3.58008 c -1.38476,7.38144 3.22051,35.18838 6.44922,38.9375 0.87995,1.02179 1.46275,2.68945 1.29492,3.70508 -0.33683,2.03843 1.46397,7.77876 4.8418,15.4375 1.21285,2.75 2.41348,4.4375 2.66796,3.75 0.25448,-0.6875 1.09974,-1.25 1.87891,-1.25 0.77917,0 1.41797,-0.47613 1.41797,-1.05859 0,-0.58241 0.39904,-0.81312 0.88672,-0.51172 0.48768,0.30141 1.4722,-0.15921 2.18945,-1.02344 1.07534,-1.2957 1.05133,-2.28968 -0.13672,-5.66602 -1.82756,-5.19374 -3.60527,-5.80899 -4.68945,-1.625 -0.46317,1.78745 -1.38357,3.42995 -2.04492,3.6504 -0.86921,0.28974 -0.95473,-0.24536 -0.3086,-1.93164 0.69859,-1.82319 0.40276,-2.88012 -1.35156,-4.83399 -1.59685,-1.77843 -2.06324,-3.19946 -1.61719,-4.92578 l 0.62696,-2.42773 2.7832,2.7832 c 1.53054,1.53055 3.00703,2.55741 3.28125,2.2832 0.78686,-0.78687 -2.65662,-11.71289 -3.69141,-11.71289 -0.51097,0 -0.92773,-1.74375 -0.92773,-3.875 0,-5.76142 -1.08671,-10.125 -2.51953,-10.125 -0.69741,0 -1.54116,-0.71204 -1.875,-1.58203 -0.86665,-2.25844 -0.7824,-2.42279 0.89453,-1.7793 1.04085,0.39941 1.5,-0.0692 1.5,-1.53125 0,-2.29007 -1.56018,-2.87643 -2.28125,-0.85742 -0.77832,2.17928 -1.96546,-0.0254 -2.33008,-4.32617 -0.20794,-2.45265 -1.56294,-5.98074 -3.31055,-8.61914 z m 9.18555,10.76172 c -0.0914,0.22657 -0.14844,0.71094 -0.14844,1.39844 0,1.375 0.22845,1.9375 0.50586,1.25 0.27741,-0.6875 0.27741,-1.8125 0,-2.5 -0.13871,-0.34375 -0.266,-0.375 -0.35742,-0.14844 z m 222.91797,2.03711 c -0.46293,0.3309 -1.00128,1.4014 -1.97461,3.46875 -1.43541,3.04877 -2.26741,7.45308 -2.7168,14.39258 -0.58699,9.06435 -1.75175,18.25384 -3.07422,24.25 -0.27294,1.2375 -0.037,2.25 0.52344,2.25 0.56047,0 1.01953,-0.60682 1.01953,-1.34766 0,-0.74083 0.93956,-2.42834 2.08984,-3.75 1.74013,-1.99937 1.98568,-3.20232 1.46289,-7.16992 -0.57138,-4.33628 -0.41943,-4.84527 1.66016,-5.61523 1.92716,-0.71353 2.30672,-1.61613 2.41211,-5.73242 0.0688,-2.68659 0.44404,-7.80977 0.83594,-11.38477 0.54327,-4.95573 0.37466,-6.94905 -0.71485,-8.39258 -0.67244,-0.89094 -1.06051,-1.29964 -1.52343,-0.96875 z M 424.13672,565.8379 c 0.275,0 0.5,0.225 0.5,0.5 0,0.275 -0.225,0.5 -0.5,0.5 -0.275,0 -0.5,-0.225 -0.5,-0.5 0,-0.275 0.225,-0.5 0.5,-0.5 z m 1,5 c 0.275,0 0.5,0.225 0.5,0.5 0,0.275 -0.225,0.5 -0.5,0.5 -0.275,0 -0.5,-0.225 -0.5,-0.5 0,-0.275 0.225,-0.5 0.5,-0.5 z m 215,15 c -0.275,0 -0.5,0.225 -0.5,0.5 0,0.275 0.225,0.5 0.5,0.5 0.275,0 0.5,-0.225 0.5,-0.5 0,-0.275 -0.225,-0.5 -0.5,-0.5 z m -3.79688,3.35938 c -0.11218,-0.0999 -0.29933,0.47224 -0.64648,1.64062 -0.4085,1.375 -0.56262,2.8375 -0.3418,3.25 0.83871,1.56674 1.28165,0.63494 1.18555,-2.5 -0.0466,-1.5189 -0.0851,-2.29075 -0.19727,-2.39062 z m 6.49219,3.89453 c -0.12083,0.12083 -0.19531,0.37943 -0.19531,0.74609 0,0.73337 0.29935,1.03268 0.66601,0.66602 0.36667,-0.36667 0.36667,-0.96537 0,-1.33203 -0.18333,-0.18333 -0.34987,-0.20092 -0.4707,-0.0801 z m -12.05664,12.80664 c -0.77496,0.0734 -8.13867,15.26571 -8.13867,16.79101 0,0.5944 -0.74979,2.64917 -1.66406,4.56641 -1.36599,2.8645 -1.43269,3.76308 -0.37696,5.03516 1.77292,2.13621 3.35474,1.93812 5.63477,-0.70313 3.61617,-4.18905 6.58458,-8.9037 5.98437,-9.50391 -0.32846,-0.32846 0.37982,-1.63681 1.57422,-2.9082 2.88739,-3.07349 2.76498,-9.13533 -0.23437,-11.58789 -1.17709,-0.9625 -2.42773,-1.72275 -2.7793,-1.68945 z m -190.52148,1.47265 c -1.84635,0.40481 -2.67368,2.39191 -2.41797,5.88086 0.24874,3.39383 0.80927,4.34302 3.30078,5.60352 1.65,0.83477 4.29718,2.82883 5.88281,4.42969 2.79984,2.82674 2.92394,2.85328 4.33594,0.98046 1.41868,-1.88166 1.49356,-1.8681 3.0957,0.48438 0.90306,1.32601 4.05648,4.78683 7.00781,7.69141 2.95133,2.90458 5.07253,5.75598 4.7129,6.33789 -0.39717,0.64262 0.38823,1.05859 2.00195,1.05859 2.42912,0 1.87855,-0.82415 -6.43945,-9.61328 -5.00381,-5.28721 -9.09766,-10.03096 -9.09766,-10.54102 0,-1.92342 -4.45098,-6.8457 -6.18945,-6.8457 -0.99657,0 -1.75846,-0.3375 -1.69336,-0.75 0.39809,-2.52124 -0.39256,-4.0887 -2.31641,-4.5918 -0.83957,-0.21955 -1.56814,-0.25993 -2.18359,-0.125 z m 9.57812,23.72071 c -0.12083,0.12083 -0.19531,0.37943 -0.19531,0.74609 0,0.73337 0.29935,1.03268 0.66601,0.66602 0.36667,-0.36667 0.36667,-0.96537 0,-1.33203 -0.18333,-0.18333 -0.34987,-0.20092 -0.4707,-0.0801 z m 17.49609,12.14062 c -3.74401,-0.13091 -6.66901,0.0821 -6.5,0.47266 0.64016,1.47917 9.58228,9.13281 10.66993,9.13281 0.62599,0 1.13867,0.6535 1.13867,1.45117 0,0.79767 0.7875,1.90815 1.75,2.46875 2.1914,1.27638 2.25,1.28115 2.25,0.15235 0,-0.51072 -0.62499,-1.55272 -1.38672,-2.31446 -1.15423,-1.15424 -1.16624,-1.78975 -0.0723,-3.82031 1.15716,-2.14783 1.39336,-2.23019 1.99219,-0.6875 0.47073,1.21268 1.77605,1.75 4.24805,1.75 h 3.56641 l -2.42383,-2.5957 c -3.89403,-4.16822 -7.91577,-5.75394 -15.23243,-6.00977 z m 141.04102,1.6582 c -0.75543,0 -1.75416,0.31507 -2.73242,0.94727 -1.16888,0.75538 -0.89294,0.97248 1.25,0.98438 1.5125,0.008 2.75,-0.43438 2.75,-0.98438 0,-0.6322 -0.51215,-0.94727 -1.26758,-0.94727 z m -6.54687,4.85547 c -0.86579,-0.219 -2.23874,0.76091 -4.44336,2.85743 -1.84086,1.75057 -2.55926,3.23758 -2.16602,4.47656 0.88428,2.78612 -1.29131,4.9533 -3.55273,3.54101 -1.48468,-0.9272 -2.53158,-0.55008 -5.91407,2.12891 -2.26076,1.79056 -4.10937,3.6681 -4.10937,4.17188 0,0.50377 -0.64886,0.91601 -1.44141,0.91601 -0.79254,0 -1.71867,0.45 -2.05859,1 -0.7665,1.24022 -0.7538,1.23962 3.50586,-0.0937 4.80319,-1.50351 10.23764,-1.78236 11.76758,-0.60352 0.70079,0.53996 1.43075,0.80573 1.62304,0.58985 8.06961,-9.0596 8.51162,-9.84862 8.19336,-14.64844 -0.17899,-2.69947 -0.53851,-4.11693 -1.40429,-4.33594 z m -113.85743,4.4668 c -0.96771,-0.21821 -2.20083,0.10418 -3.25976,1.0625 -1.02042,0.92346 -3.06124,2.00034 -4.53516,2.39453 l -2.67969,0.7168 4.20704,3.38086 c 4.0617,3.26407 4.36485,3.34283 8.82226,2.29687 9.58635,-2.2495 10.11506,-2.30227 10.13086,-0.99609 0.0304,2.51695 1.84704,4.06399 5.63086,4.79492 5.39155,1.04148 5.35547,1.03989 5.35547,0.4043 0,-1.33045 -3.29294,-3.66781 -8.26172,-5.86524 -2.92568,-1.29387 -5.93633,-3.09643 -6.68945,-4.0039 -0.96317,-1.16054 -2.21091,-1.46425 -4.20899,-1.02539 -2.20345,0.48396 -2.83984,0.26317 -2.83984,-0.98633 0,-1.1971 -0.70416,-1.95562 -1.67188,-2.17383 z m 28.96875,18.01758 c -0.60597,-0.0341 -1.3358,0.0667 -2.20117,0.29297 -2.50394,0.65479 -2.5005,0.63266 -0.57031,4.36523 2.15284,4.16314 4.92398,3.90645 5.14648,-0.47656 0.14037,-2.76501 -0.55707,-4.07947 -2.375,-4.18164 z m 10.89844,0.86133 c -0.12083,0.12083 -0.19531,0.37943 -0.19531,0.74609 0,0.73337 0.29935,1.03268 0.66601,0.66602 0.36667,-0.36667 0.36667,-0.96537 0,-1.33203 -0.18333,-0.18333 -0.34987,-0.20092 -0.4707,-0.0801 z m 8.24414,1.74609 c -1.47259,0 -1.91481,1.19261 -0.84179,2.26563 0.90143,0.90143 3.47214,-0.34169 2.83593,-1.3711 -0.3043,-0.49237 -1.2016,-0.89453 -1.99414,-0.89453 z m 34.06055,1 c -0.275,0 -0.5,0.225 -0.5,0.5 0,0.275 0.225,0.5 0.5,0.5 0.275,0 0.5,-0.225 0.5,-0.5 0,-0.275 -0.225,-0.5 -0.5,-0.5 z m -2,1 c -0.275,0 -0.5,0.225 -0.5,0.5 0,0.275 0.225,0.5 0.5,0.5 0.275,0 0.5,-0.225 0.5,-0.5 0,-0.275 -0.225,-0.5 -0.5,-0.5 z m -21.92774,0.57617 c -0.53096,3.4e-4 -0.90681,0.15606 -1.09765,0.46485 -0.32756,0.53002 0.46266,1.36574 1.75586,1.85742 1.2932,0.49167 2.93701,1.59901 3.65234,2.46094 1.18073,1.42289 1.5207,1.42155 3.69922,-0.006 2.79842,-1.8336 2.31112,-3.35352 -1.07617,-3.35352 -1.30674,0 -3.51492,-0.43196 -4.90625,-0.96094 -0.81059,-0.30812 -1.49638,-0.46322 -2.02735,-0.46289 z m -14.83593,1.46875 c -1.5176,-0.27427 -3.24875,-0.007 -4.67383,0.89453 -2.20846,1.39745 0.38073,3.88454 4.78711,4.59961 2.00723,0.32573 4.55039,0.98239 5.65039,1.45899 2.70724,1.17281 3.2757,1.17164 4.00586,-0.01 0.34568,-0.55934 -0.69401,-1.27512 -2.32617,-1.60156 -1.78495,-0.35699 -3.38441,-1.53861 -4.04493,-2.98828 -0.57561,-1.26334 -1.88084,-2.07924 -3.39843,-2.35352 z m 33.22656,4.5918 c -0.68003,0.34091 -0.96289,1.09453 -0.96289,2.31641 0,1.00869 -0.675,2.09161 -1.5,2.4082 -0.825,0.31658 -1.5,1.04015 -1.5,1.60742 0,2.39735 4.94576,0.91399 7.39844,-2.21875 l 2.54492,-3.25 -2.63672,-0.70703 c -1.58754,-0.42602 -2.66372,-0.49716 -3.34375,-0.15625 z m -19.58594,1.36328 c -2.30411,0 -1.53528,2.83605 0.87305,3.2207 1.2375,0.19763 2.4267,0.23986 2.64258,0.0937 0.78167,-0.52904 -2.17283,-3.31445 -3.51563,-3.31445 z" />
    </g>
    <path
       style="fill:#ffffff;stroke-width:0.591908"
       d="m 324.29218,293.73513 c 140.30111,-4.72418 280.52372,-0.48089 420.79924,2.52131 -7.74284,216.634 -1.52294,206.30544 -5.04262,400.63948 -136.0843,21.48245 -271.3972,15.12384 -408.19268,10.08524 -7.74712,-149.94429 -6.10344,-259.7791 -7.56394,-413.24603 z m 241.7074,403.14138 c 4.09594,-1.59211 11.77536,-6.84085 23.49971,-16.0616 18.38787,-14.46137 25.30456,-21.51189 38.67804,-39.42645 4.54353,-6.08632 6.98439,-10.16735 11.3625,-18.99771 6.88411,-13.8848 9.20701,-20.12536 12.55843,-33.73873 3.75204,-15.2407 4.4014,-20.403 4.39634,-34.94986 -0.007,-19.63067 -0.70476,-25.0684 -6.34009,-49.39696 -0.49015,-2.11607 -2.35104,-8.35894 -4.1353,-13.87305 l -3.2441,-10.02566 1.64597,-1.38996 c 0.90528,-0.76448 2.63603,-2.07581 3.8461,-2.91407 2.31404,-1.60301 4.40141,-4.54845 7.62818,-10.76394 5.75988,-11.09482 0.81257,-31.04905 -12.87333,-51.9226 -9.23598,-14.08659 -24.128,-27.04552 -40.99024,-35.66942 -10.37912,-5.30821 -21.69686,-9.78127 -28.47341,-10.94663 l -19.5663,-2.42911 -16.2441,-0.62281 c -21.97212,0.004 -26.18038,0.14824 -30.77919,1.0555 -2.92995,0.57803 -5.7488,1.17556 -6.26413,1.32786 -1.11949,0.33084 -1.59191,-0.59543 -4.99963,-9.80254 -6.46859,-17.47713 -9.69781,-23.39023 -22.13445,-40.53083 -6.71051,-9.24865 -11.53425,-12.7326 -17.82752,-12.87595 -2.21688,-0.0505 -3.29464,0.27245 -4.81841,1.44382 -3.87496,2.97878 -12.14999,11.0861 -14.72609,14.42763 l -2.62631,3.40664 0.13748,5.26258 c 0.16214,6.20713 0.73645,7.61913 5.24067,12.88461 7.0826,8.27964 12.55861,17.91666 15.96476,28.09578 2.30237,6.88057 2.57694,9.65964 1.0016,10.13798 -7.11148,2.15937 -20.83612,9.10956 -31.75864,16.08267 -7.94283,5.07082 -9.92342,6.69336 -17.83633,14.61182 -19.40108,19.41471 -29.19117,36.69382 -32.21158,56.8521 -2.76126,18.42871 -1.46275,34.61246 3.85033,47.98809 2.32808,5.8609 4.34727,8.51623 9.88634,13.00099 5.54238,4.48745 8.37734,5.94954 13.28891,6.85358 1.88815,0.34754 3.49721,0.69372 3.57569,0.76929 0.0785,0.0756 0.66004,4.00903 1.29236,8.74104 3.23356,24.1983 10.91687,50.15068 18.21689,61.53223 1.32798,2.07047 2.71031,4.70127 3.07184,5.84622 4.09202,12.95916 33.36556,44.78815 54.09896,58.82154 14.03118,9.49701 33.37139,17.21885 58.67197,23.42561 21.83273,5.356 21.85088,5.35866 25.93608,3.77075 z"
       id="path48" />
  </g>
</svg>
