<?xml version="1.0" encoding="UTF-8" standalone="no"?>
<!-- Created with Inkscape (http://www.inkscape.org/) -->

<svg
   width="24mm"
   height="24mm"
   viewBox="0 0 24 24"
   version="1.1"
   id="svg1"
   xml:space="preserve"
   inkscape:version="1.3.2 (091e20e, 2023-11-25)"
   sodipodi:docname="tree_icon.svg"
   xmlns:inkscape="http://www.inkscape.org/namespaces/inkscape"
   xmlns:sodipodi="http://sodipodi.sourceforge.net/DTD/sodipodi-0.dtd"
   xmlns="http://www.w3.org/2000/svg"
   xmlns:svg="http://www.w3.org/2000/svg"><sodipodi:namedview
     id="namedview1"
     pagecolor="#ffffff"
     bordercolor="#000000"
     borderopacity="0.25"
     inkscape:showpageshadow="2"
     inkscape:pageopacity="0.0"
     inkscape:pagecheckerboard="0"
     inkscape:deskcolor="#d1d1d1"
     inkscape:document-units="mm"
     inkscape:zoom="1.5750281"
     inkscape:cx="413.00852"
     inkscape:cy="510.4671"
     inkscape:window-width="1392"
     inkscape:window-height="1027"
     inkscape:window-x="291"
     inkscape:window-y="25"
     inkscape:window-maximized="0"
     inkscape:current-layer="g1" /><defs
     id="defs1" /><g
     inkscape:label="Layer 1"
     inkscape:groupmode="layer"
     id="layer1"><g
       id="g1"><path
         style="display:inline;fill:#00ff00"
         d="m 132.2436,213.53132 c -1.67349,-0.80245 -3.93237,-1.76009 -5.01973,-2.12807 -1.08736,-0.36798 -2.51531,-0.92208 -3.17321,-1.23133 -1.52218,-0.71551 -6.05428,-5.24873 -7.79621,-7.79813 -0.7162,-1.04818 -1.39319,-1.90579 -1.50444,-1.90579 -0.46491,0 -0.52451,0.65673 -0.22309,2.45794 0.25119,1.50107 0.76346,2.76569 2.40337,5.93314 1.14628,2.21399 2.08414,4.20829 2.08414,4.43177 0,0.64944 -1.03006,0.47962 -2.39205,-0.39437 -1.57264,-1.00915 -5.56835,-5.13043 -7.20747,-7.43397 -3.73621,-5.25066 -4.52947,-10.29779 -3.28007,-20.86951 0.36975,-3.1287 0.86467,-8.8437 1.09982,-12.7 1.43248,-23.49216 2.01669,-29.97016 3.436,-38.09999 0.86164,-4.93547 0.8754,-7.85921 0.0511,-10.85522 -1.26797,-4.60865 -2.10555,-6.25908 -6.36656,-12.54515 -1.4893,-2.19709 -3.32695,-4.38806 -6.031801,-7.19152 -3.890266,-4.032086 -4.550731,-4.942646 -6.693361,-9.227905 -1.020861,-2.041723 -1.126303,-2.154138 -2.978061,-3.174999 -5.562246,-3.066429 -5.964386,-3.357285 -7.133372,-5.159375 -0.613581,-0.945885 -1.403264,-2.148217 -1.754852,-2.671849 -0.351588,-0.523631 -1.575974,-1.620364 -2.720857,-2.437183 -1.144884,-0.816819 -2.676919,-2.029034 -3.404523,-2.69381 -0.727604,-0.664776 -1.561042,-1.258146 -1.852083,-1.318599 -0.291042,-0.06045 -1.766196,-0.305181 -3.278119,-0.543839 -3.301299,-0.521111 -4.051098,-0.815786 -3.94389,-1.549967 0.107744,-0.737855 2.274752,-1.516651 4.37649,-1.572855 l 1.652398,-0.04419 2.580935,2.676217 c 1.419514,1.471919 3.424162,3.225689 4.454772,3.897268 2.449628,1.596255 2.918375,2.054837 4.431111,4.335015 0.697906,1.051966 1.672871,2.242591 2.16659,2.645833 1.238862,1.011832 5.863613,3.419543 6.104872,3.178283 0.108293,-0.108293 -0.01194,-1.698594 -0.267178,-3.534002 -0.333863,-2.400768 -0.383459,-3.417722 -0.176758,-3.624422 0.180242,-0.180242 0.372339,-0.193645 0.515458,-0.03596 0.254051,0.2799 0.88182,2.730184 1.625677,6.345275 0.719635,3.497374 1.391379,5.053928 3.113587,7.214754 1.500733,1.882944 5.420355,5.34445 6.051775,5.34445 0.39211,0 0.48154,-0.43339 1.17382,-5.688543 0.60997,-4.630391 0.55556,-6.451706 -0.2745,-9.188265 -0.27688,-0.912808 -0.6394,-2.179718 -0.80561,-2.815357 -0.1838,-0.702941 -0.74147,-1.635831 -1.423491,-2.38125 -1.980029,-2.164099 -4.397732,-5.3092 -4.397732,-5.720848 0,-0.669189 0.706163,-0.447791 1.468507,0.460409 1.566005,1.865624 3.957196,4.431771 4.129626,4.431771 0.10016,0 0.50829,-1.380395 0.90695,-3.067543 0.66189,-2.801217 1.11458,-3.688492 1.62264,-3.180431 0.0921,0.09207 -0.1151,1.882075 -0.46037,3.977792 l -0.62777,3.810393 0.83283,2.735623 c 0.45805,1.504593 0.91343,3.241639 1.01194,3.860103 0.0985,0.618463 0.25319,1.121533 0.34373,1.117933 0.0905,-0.0036 1.33504,-1.610944 2.76556,-3.571875 1.43051,-1.960931 2.71417,-3.565329 2.85257,-3.565329 1.01246,0 -0.0358,2.08282 -3.07025,6.100515 -0.61077,0.808668 -1.45097,2.051294 -1.86712,2.761391 l -0.75662,1.291085 -0.0121,5.572983 c -0.0142,6.582903 -0.0772,6.373013 3.24558,10.825203 1.17846,1.57904 2.59447,3.5723 3.14668,4.42946 0.58376,0.90613 1.19499,1.55945 1.46025,1.5608 0.66861,0.003 1.08473,-0.9897 2.44336,-5.83115 1.72211,-6.13672 2.91367,-9.311312 4.43265,-11.8096 l 1.31629,-2.164937 0.22163,-3.523604 c 0.19987,-3.177682 0.55803,-6.201867 0.9265,-7.823083 0.18752,-0.825077 0.91897,-0.771621 0.91897,0.06716 0,0.36436 -0.13305,2.755438 -0.29566,5.313508 -0.18247,2.87041 -0.20137,4.745328 -0.0494,4.897328 0.34961,0.349612 3.19038,-1.125132 4.5028,-2.337557 0.97465,-0.900401 1.19523,-1.366619 2.31726,-4.897731 0.83033,-2.613114 1.36424,-3.902604 1.61585,-3.902604 0.5161,0 0.48116,1.025099 -0.14505,4.255473 -0.79065,4.078672 -1.06134,4.48649 -5.12997,7.728732 -2.75911,2.198696 -3.82034,3.234263 -4.85856,4.741042 -2.40649,3.492553 -2.88764,4.762473 -3.88818,10.262253 -0.9808,5.39131 -1.03974,7.01165 -0.43919,12.07434 0.30838,2.59968 0.61991,4.99459 0.69229,5.32201 0.2411,1.09066 1.19813,0.7274 3.03958,-1.15375 0.94168,-0.96198 3.62095,-3.43252 5.95393,-5.4901 6.26546,-5.52583 9.74691,-9.49745 13.94804,-15.91188 1.49624,-2.28452 2.7282,-3.83941 3.66855,-4.63021 0.77869,-0.654838 2.57964,-2.28991 4.00211,-3.633487 1.42247,-1.343577 2.89079,-2.519286 3.26292,-2.612687 1.02595,-0.257495 4.85162,0.031 5.2138,0.393172 0.54814,0.548148 -0.30602,0.817509 -2.60622,0.821873 -2.48561,0.0047 -2.20684,-0.161311 -7.11489,4.237385 -2.71904,2.436854 -3.22693,3.029284 -4.13452,4.822774 -0.56909,1.12455 -1.0347,2.10682 -1.0347,2.18281 0,0.23628 1.5022,0.72128 4.05635,-0.25702 1.72795,-0.66185 0.33203,0.0553 5.29167,-1.55325 1.5331,-0.49724 3.10724,-1.292 3.61656,-1.4519 1.22989,-0.38612 7.41892,-1.17519 7.62231,-0.97181 0.27491,0.27492 -0.79648,1.97751 -1.83454,2.91533 -1.35362,1.22292 -2.48693,1.39552 -4.56156,0.69474 -2.18706,-0.73875 -2.93507,-0.70315 -4.60827,0.2193 -1.94801,1.07395 -3.58554,1.57401 -6.08962,1.85961 -3.40869,0.38877 -4.28294,0.71013 -5.5681,2.04673 -1.38476,1.44019 -6.39147,8.11394 -6.39147,8.51959 0,0.15822 0.44649,0.28909 0.99219,0.29082 1.46875,0.005 3.37418,0.57952 6.00111,1.81054 1.28721,0.6032 2.50418,1.09673 2.7044,1.09673 0.20021,0 1.9271,-0.78325 3.83752,-1.74057 2.69468,-1.3503 3.52346,-1.66175 3.69634,-1.38906 0.12256,0.19333 0.22466,0.4233 0.22689,0.51105 0.002,0.0877 -1.4247,0.96845 -3.17095,1.95712 -1.74625,0.98867 -3.17392,1.92891 -3.1726,2.08942 0.003,0.30972 0.99042,1.16505 2.67124,2.31284 0.56225,0.38395 1.86713,0.90514 2.89972,1.15819 1.69357,0.41503 2.44503,0.92915 2.00347,1.37072 -0.22458,0.22457 -4.64203,-0.4178 -5.31041,-0.77223 -0.30064,-0.15942 -1.48014,-1.0386 -2.62111,-1.95374 -1.77222,-1.42144 -2.50469,-1.80996 -5.02708,-2.66647 -3.60104,-1.22279 -6.19382,-1.35713 -8.00378,-0.4147 -1.77162,0.92247 -6.8771,6.4673 -8.97603,9.74845 -2.78561,4.3546 -4.56565,8.58048 -5.1163,12.14627 -0.1573,1.01865 -0.40754,4.05474 -0.55608,6.74688 -1.53884,27.88997 -1.53067,30.09738 0.14263,38.56179 1.41632,7.16445 3.50291,11.92035 6.59238,15.0258 1.01864,1.02391 3.57849,3.07395 5.68854,4.55563 4.85339,3.40807 7.89962,5.69713 7.92092,5.95209 0.0378,0.45243 -1.07622,0.0887 -3.95217,-1.29033 z M 114.51652,194.4149 c 0,-0.12775 -0.17356,-0.64766 -0.38569,-1.15535 -0.53226,-1.27389 -1.10937,-3.94722 -1.72104,-7.97234 -0.28474,-1.87376 -0.57414,-3.46326 -0.6431,-3.53223 -0.76678,-0.76678 -0.96069,4.16129 -0.28932,7.35288 0.44159,2.09925 2.10286,5.53931 2.67504,5.53931 0.20026,0 0.36411,-0.10452 0.36411,-0.23227 z m -2.79769,-22.58804 c 0.0798,-0.61847 0.32792,-4.51776 0.5513,-8.66511 0.22338,-4.14734 0.47946,-8.28476 0.56906,-9.19427 0.13253,-1.34535 0.0911,-1.65364 -0.22202,-1.65364 -0.30787,0 -0.44925,0.86069 -0.70627,4.29948 -0.17674,2.36471 -0.51219,6.82111 -0.74545,9.90311 -0.23326,3.082 -0.35234,5.79067 -0.26462,6.01927 0.29134,0.75922 0.67096,0.43026 0.818,-0.70884 z m 1.21019,-27.5684 c 0,-1.67137 0.62451,-7.87121 1.21221,-12.03416 0.45961,-3.25563 0.56834,-4.69407 0.36984,-4.89258 -0.44788,-0.44787 -0.69994,0.21114 -1.30173,3.40336 -0.95963,5.09037 -1.28689,14.17042 -0.51073,14.17042 0.12672,0 0.23041,-0.29117 0.23041,-0.64704 z m -22.369118,65.12367 c 1.656249,-1.009 3.344687,-3.01511 4.935001,-5.8635 1.750242,-3.13483 2.556061,-3.87613 2.265211,-2.08383 -0.22058,1.35927 -1.792474,4.56622 -2.801366,5.71528 -0.847773,0.96556 -3.70102,2.59215 -4.495428,2.56278 -0.33555,-0.0124 -0.315991,-0.0794 0.09658,-0.33073 z m 9.872228,-8.0623 c -0.19843,-0.75879 0.26497,-6.24003 0.86288,-10.20645 0.30395,-2.01635 0.96968,-4.99291 1.4794,-6.61459 1.28764,-4.09664 1.67949,-5.87742 1.68403,-7.65315 0.003,-1.13204 0.11004,-1.57039 0.4122,-1.68634 0.22455,-0.0862 0.48553,-0.0794 0.57995,0.015 0.31879,0.31879 -0.48227,6.35264 -1.28516,9.68034 -1.00029,4.14587 -2.54729,14.07086 -2.60891,16.73784 -0.01,0.41723 -1.00725,0.17533 -1.12439,-0.27265 z m 4.83202,-43.22208 c -0.0232,-8.11052 -3.08063,-14.83339 -8.963172,-19.70872 -0.968277,-0.80248 -3.605972,-2.87192 -5.861544,-4.59876 -4.259733,-3.26119 -4.439437,-3.46069 -6.907104,-7.6683 -0.639478,-1.09037 -1.996125,-3.05711 -3.014771,-4.37054 -1.018646,-1.31343 -2.180175,-2.82526 -2.581177,-3.35963 -0.401002,-0.53436 -1.710689,-1.6281 -2.910417,-2.43054 -1.199727,-0.80244 -2.695023,-1.90283 -3.322879,-2.44531 l -1.141556,-0.98633 -2.298027,0.1119 c -4.51254,0.21974 -7.572922,0.0755 -8.493032,-0.40032 -1.604348,-0.82964 -5.314369,-3.60661 -5.314369,-3.97783 0,-0.74355 0.472316,-0.59385 3.053302,0.9677 3.132433,1.89518 4.258778,2.33694 5.958499,2.33694 1.195635,0 4.974045,-0.66849 5.231049,-0.92549 0.0646,-0.0646 -0.315052,-1.57944 -0.843678,-3.3663 -1.649918,-5.57705 -1.757347,-6.10341 -1.335772,-6.54479 0.53001,-0.55491 0.715578,-0.26614 2.045387,3.18287 1.728943,4.48421 2.339209,5.5402 4.194799,7.25861 2.437486,2.25728 4.515433,3.83432 5.052441,3.83451 0.560385,2e-4 0.769992,-0.50842 1.665675,-4.04187 0.803025,-3.16792 0.91869,-3.42181 1.418193,-3.1131 0.314466,0.19435 0.282987,0.76562 -0.207098,3.75831 -0.317862,1.94102 -0.575745,3.81715 -0.573073,4.16919 0.0098,1.28603 2.072449,4.34883 6.336739,9.40916 2.673726,3.17284 5.116441,5.58407 9.338293,9.21793 1.931664,1.66263 3.768495,3.30597 4.081845,3.65186 0.982037,1.08402 3.531727,5.05378 4.359907,6.78817 1.83308,3.8389 2.5709,9.47928 1.79238,13.70203 -0.49901,2.70667 -0.75225,2.55644 -0.76084,-0.45135 z M 60.322472,128.8745 c -2.84958,-1.466 -3.644536,-2.22524 -2.329921,-2.22524 0.344318,0 1.785754,0.54936 3.203192,1.22081 l 2.577159,1.22081 2.683787,-1.12814 c 2.69711,-1.13373 3.871968,-1.83968 3.071213,-1.84543 -0.360432,-0.003 -1.123533,-0.52313 -5.08378,-3.46784 -1.386915,-1.03127 -2.004496,-2.08563 -1.221632,-2.08563 0.164846,0 2.04008,1.16086 4.167187,2.57969 l 3.867466,2.57968 3.594087,0.1482 c 3.441767,0.14192 3.68005,0.18902 5.622396,1.11144 1.838264,0.87299 2.44308,1.4955 1.824454,1.87783 -0.11212,0.0693 -1.153917,-0.11621 -2.315104,-0.41223 -1.58329,-0.40362 -3.037551,-0.54574 -5.815417,-0.56832 l -3.704166,-0.0301 -2.688634,1.10304 c -4.120126,1.69031 -4.011753,1.69146 -7.452287,-0.0786 z m 1.980676,-19.4135 c -2.108097,-1.59559 -3.610696,-3.14924 -3.450216,-3.56745 0.22448,-0.58498 0.450217,-0.52111 1.586561,0.44894 2.458049,2.09832 3.613172,3.30817 3.434516,3.59724 -0.268307,0.43413 -0.429807,0.38491 -1.570861,-0.47873 z m 1.148787,-11.494518 c -2.035776,-1.336717 -2.582721,-1.913254 -2.188774,-2.307201 0.460909,-0.460909 4.570024,2.218657 4.570024,2.980126 0,0.719329 -0.458012,0.589898 -2.38125,-0.672925 z m 6.734281,-15.604303 c -0.848193,-0.37545 -1.707198,-1.451214 -1.707198,-2.137987 0,-0.663325 1.547338,-0.475507 3.307292,0.401443 0.873124,0.435061 2.033984,0.86326 2.579687,0.951554 1.167622,0.188919 1.291219,0.52379 0.264583,0.716852 -2.01598,0.379112 -3.684056,0.404686 -4.444364,0.06814 z m 50.954194,-2.526777 c -0.15064,-0.281475 -0.27389,-0.771688 -0.27389,-1.089363 0,-0.317675 -0.58884,-1.927104 -1.30854,-3.576509 -0.71969,-1.649406 -1.38705,-3.417465 -1.48302,-3.929021 -0.21172,-1.12858 0.53603,-2.843226 1.74507,-4.001562 0.67813,-0.649691 0.84866,-0.710491 1.06824,-0.380875 0.37141,0.557537 0.0917,2.033676 -0.66676,3.519304 -0.48174,0.943553 -0.59003,1.425009 -0.41658,1.852083 0.97598,2.403085 2.1492,4.820184 2.3764,4.895917 0.15016,0.05005 0.73656,-0.276129 1.30311,-0.724848 0.56656,-0.448719 1.13203,-0.819166 1.25661,-0.823214 0.12458,-0.004 0.6942,-0.361236 1.26583,-0.79375 0.57162,-0.432514 1.1967,-0.786389 1.38906,-0.786389 0.87555,0 0.14842,0.908025 -2.25934,2.821416 -1.49742,1.189959 -2.72768,2.38339 -2.88744,2.800979 -0.32651,0.853509 -0.72587,0.931249 -1.10875,0.215832 z"
         id="path3"
         sodipodi:nodetypes="cssssssssssssssssssssssssscssssssssssssssssssssscsssssssccsscsscsssscsssssssssssssssssssssssssssssscsssscscssssssssssssssccssscssssssssssssssssssssssssssscscscssssssssscsssssssssssssscsssssscsscscssscssssscsccssssssssssssssssssssssssssscssss"
         sodipodi:insensitive="true" /><path
         style="display:inline;fill:#0000ff"
         d="M -30.475143,121.62217 V -13.844487 H 104.99152 240.45818 V 121.62217 257.08883 H 104.99152 -30.475143 Z m 108.102376,94.82136 c 2.160926,-0.32046 4.64517,-0.41968 9.844089,-0.39317 l 6.953762,0.0354 3.516375,-0.90918 c 1.934006,-0.50005 4.757941,-1.05441 6.275401,-1.23191 4.8484,-0.56712 16.00093,0.0834 23.13195,1.34923 3.76142,0.6677 9.35243,1.31248 9.82114,1.13262 0.83082,-0.31882 -0.0925,-1.43108 -1.01909,-1.22769 -0.48735,0.10697 -0.52548,0.0768 -0.2031,-0.16069 0.35278,-0.25988 0.35278,-0.31858 0,-0.52826 -0.21828,-0.12974 -1.28984,-0.93903 -2.38125,-1.79843 -1.0914,-0.8594 -3.59171,-2.68199 -5.55625,-4.0502 -1.96453,-1.36821 -4.40531,-3.32497 -5.42395,-4.34835 -3.08912,-3.10347 -5.17587,-7.85943 -6.59238,-15.02482 -1.43018,-7.23459 -1.5823,-11.74804 -0.85379,-25.33263 0.23802,-4.43838 0.56153,-10.45 0.71891,-13.35915 0.15738,-2.90916 0.40107,-5.42785 0.54153,-5.59709 0.14046,-0.16925 0.1811,-0.64653 0.0903,-1.06063 -0.10676,-0.48692 -0.0798,-0.63265 0.0763,-0.41251 0.17466,0.24626 0.37949,0.0267 0.74058,-0.79375 1.1696,-2.65761 3.99034,-7.60864 5.21337,-9.15066 1.42261,-1.79363 3.61372,-3.16028 5.27744,-3.29166 0.75347,-0.0595 0.88502,0.0215 0.96228,0.59254 0.10492,0.77538 0.98855,1.81348 1.81573,2.13312 0.37155,0.14358 0.68206,0.59657 0.85878,1.25283 0.15223,0.56536 0.48565,1.20857 0.74093,1.42936 0.64086,0.55427 2.0435,0.9927 2.66006,0.83147 0.37632,-0.0984 0.66677,0.11614 1.0948,0.8087 0.80313,1.2995 2.25888,1.74571 3.81441,1.16919 1.0667,-0.39534 1.1397,-0.38754 2.02039,0.21592 1.00474,0.68845 1.86537,0.77929 3.14777,0.33224 0.80478,-0.28055 0.90563,-0.23449 2.23079,1.01879 1.61354,1.52602 3.02662,2.11117 4.09845,1.69714 0.39163,-0.15128 1.22998,-0.25382 1.86301,-0.22788 1.03614,0.0425 1.23008,-0.0514 1.9439,-0.94123 0.4361,-0.54362 0.93921,-0.9884 1.11801,-0.9884 0.1788,0 0.59954,-0.29214 0.93497,-0.64919 0.609,-0.64825 0.61127,-0.64849 1.56748,-0.16866 3.70923,1.86132 5.81949,1.92678 7.46464,0.23157 0.85047,-0.87635 1.08549,-0.99205 1.53092,-0.75367 0.89928,0.48128 2.05907,0.32269 2.91652,-0.39881 0.44475,-0.37423 0.93246,-0.60389 1.08381,-0.51035 0.15134,0.0935 0.69878,0.0303 1.21652,-0.14061 0.96434,-0.31826 1.95586,-1.55684 1.95773,-2.44554 6.6e-4,-0.31211 0.27325,-0.52409 0.81266,-0.63197 0.86225,-0.17245 1.42225,-0.826 1.70961,-1.9952 0.12455,-0.50673 0.43593,-0.80138 1.06695,-1.00964 0.4901,-0.16174 1.25246,-0.63165 1.69414,-1.04424 0.66238,-0.61876 0.80305,-0.95705 0.80305,-1.93125 0,-0.78045 0.1795,-1.40927 0.52917,-1.8538 0.71588,-0.9101 0.67442,-2.35903 -0.10636,-3.71715 -0.76062,-1.32307 -1.13089,-2.82524 -0.69639,-2.82524 0.54685,0 1.5965,-1.29063 1.5965,-1.96304 0,-0.37709 0.21304,-0.77819 0.49287,-0.92796 0.67015,-0.35865 1.19232,-1.7108 0.98291,-2.54518 -0.13665,-0.54443 -0.008,-0.837 0.63148,-1.43421 0.66648,-0.62258 0.80315,-0.95476 0.80315,-1.95201 0,-0.85289 0.13828,-1.30213 0.47632,-1.54749 1.43033,-1.03821 1.72529,-2.56221 0.8108,-4.18932 l -0.56496,-1.00521 0.56496,-0.91412 c 1.06482,-1.7229 0.61547,-3.716791 -1.13923,-5.055168 -0.52433,-0.399928 -0.94164,-0.952094 -0.94164,-1.24595 0,-0.29025 -0.29686,-0.824588 -0.65969,-1.187416 -0.55234,-0.552345 -0.74976,-0.611479 -1.21328,-0.363412 -0.30448,0.162952 -0.61191,0.23797 -0.68317,0.166706 -0.0713,-0.07126 0.1238,-0.209985 0.43347,-0.308271 0.47487,-0.150717 0.50965,-0.243024 0.22212,-0.589474 -0.1875,-0.225926 -0.84488,-0.626801 -1.46085,-0.890833 -1.57643,-0.675741 -1.72618,-1.462645 -0.85975,-4.517953 0.50132,-1.767826 0.0706,-3.07124 -1.30017,-3.934336 -0.92813,-0.584397 -1.0495,-0.786528 -1.16061,-1.932972 -0.1575,-1.625132 -1.00113,-2.536868 -2.53811,-2.743021 -0.9267,-0.124297 -1.09871,-0.242459 -1.09871,-0.754784 0,-0.626775 -1.10982,-1.704158 -1.75547,-1.704158 -0.62255,0 -0.41822,-1.273351 0.27747,-1.729186 1.48194,-0.971005 1.8286,-3.270418 0.67774,-4.495456 -0.45414,-0.483411 -0.48647,-0.679371 -0.23232,-1.408427 0.58552,-1.679612 -0.13591,-3.234582 -1.6794,-3.619791 -0.54366,-0.135683 -0.7276,-0.343701 -0.7276,-0.822862 0,-1.608296 -1.39972,-3.270111 -2.75437,-3.270111 -0.2389,0 -0.53112,-0.439691 -0.72723,-1.094232 -0.3586,-1.196905 -1.45753,-2.075908 -2.60382,-2.08272 -0.55029,-0.0033 -0.75039,-0.233134 -1.19062,-1.367764 -0.74012,-1.907515 -1.5913,-2.471623 -3.69359,-2.447869 l -1.67025,0.01887 -0.44683,-1.012772 c -0.98903,-2.241678 -3.47836,-3.135625 -5.8322,-2.094409 -0.69916,0.309272 -1.29477,0.531102 -1.32357,0.492957 -0.0288,-0.03815 -0.19474,-0.650903 -0.36875,-1.361684 -0.63927,-2.611249 -2.57269,-5.235999 -4.49561,-6.103118 -0.58987,-0.265993 -1.00788,-0.588163 -0.92891,-0.715933 0.1906,-0.308406 -1.95257,-1.268144 -2.84834,-1.275517 -1.02028,-0.0084 -1.54216,-0.265068 -1.5488,-0.761722 -0.009,-0.662235 -1.0133,-2.738292 -1.66426,-3.439816 -0.31839,-0.343119 -1.1742,-0.89165 -1.90181,-1.218957 -1.05318,-0.473768 -1.4825,-0.872374 -2.10561,-1.954991 -0.61377,-1.066392 -1.02338,-1.451805 -1.8979,-1.785786 -1.27196,-0.485768 -1.91024,-0.310026 -1.36715,0.376429 0.55456,0.700948 -1.27253,-0.76572 -2.70538,-2.171709 l -1.31817,-1.29345 -1.57598,0.142905 c -1.18758,0.107686 -1.65436,0.04847 -1.89398,-0.240255 -1.17829,-1.419745 -2.24013,-1.68918 -7.02291,-1.782012 -0.89697,-0.01741 -1.72048,-0.120951 -1.83004,-0.230092 -0.29431,-0.293193 -1.65399,-0.240875 -2.26707,0.08723 -0.4161,0.222688 -0.64133,0.18834 -1.0216,-0.155793 -0.87304,-0.790092 -2.36189,-0.955773 -3.61353,-0.402116 -0.61293,0.271132 -1.2693,0.740959 -1.45859,1.04406 -0.37333,0.597795 -1.00452,0.715951 -1.44919,0.271283 -0.15389,-0.153895 -0.94198,-0.348152 -1.7513,-0.431682 -1.21552,-0.125452 -1.63155,-0.05295 -2.39157,0.416762 -0.50603,0.312748 -1.104609,0.850285 -1.330165,1.194526 -0.359963,0.549373 -0.559336,0.609072 -1.630773,0.488306 -1.448864,-0.163308 -2.392043,0.258684 -2.938037,1.314521 -0.253026,0.489299 -0.590216,0.736961 -1.003364,0.736961 -0.342247,0 -0.769978,0.17798 -0.950513,0.395511 -0.251471,0.303005 -0.65793,0.356764 -1.737803,0.229846 -1.34369,-0.157924 -1.450413,-0.124236 -2.283839,0.720908 -0.718659,0.728764 -1.086263,0.892062 -2.065192,0.917407 -1.477423,0.03825 -2.303645,0.53191 -2.69429,1.609811 -0.251456,0.693841 -0.470976,0.853562 -1.331818,0.969026 -0.595126,0.07982 -1.241157,0.380869 -1.528634,0.712332 -0.55879,0.64429 -0.92398,1.959866 -0.661797,2.384086 0.09481,0.153407 -0.194023,0.696236 -0.641854,1.206287 -0.905401,1.031195 -1.027593,1.948817 -0.415732,3.122008 0.217385,0.416816 0.395245,0.790756 0.395245,0.830977 0,0.04022 -0.874266,0.117277 -1.942814,0.171236 -1.640271,0.08283 -2.096066,0.214998 -2.926932,0.848731 -0.958061,0.730749 -0.998236,0.737844 -1.517408,0.268 -0.355902,-0.322086 -1.011191,-0.500869 -1.970007,-0.537479 -1.242979,-0.04746 -1.528224,-0.163609 -2.115341,-0.861358 -1.318293,-1.566702 -3.988818,-1.659831 -5.37215,-0.187341 -0.495573,0.527513 -0.778453,0.614041 -1.632807,0.499448 -1.29134,-0.173205 -2.472444,0.297604 -2.855463,1.138237 -0.230924,0.506825 -0.494,0.643576 -1.238085,0.643576 -1.256172,0 -2.406502,0.625583 -2.605062,1.41671 -0.100702,0.401229 -0.419851,0.706404 -0.852241,0.814927 -0.42697,0.107163 -0.798698,0.458151 -0.972287,0.918041 -0.180942,0.47937 -0.598236,0.859249 -1.171653,1.066599 -1.316227,0.475954 -1.931915,1.265085 -1.931915,2.476148 0,0.719472 -0.202269,1.276778 -0.661458,1.822493 -0.948857,1.127652 -0.89283,2.406915 0.151136,3.450881 0.598395,0.598395 0.772642,0.971783 0.661026,1.416494 -0.233658,0.93097 0.276176,1.921035 1.300435,2.525363 1.204204,0.710498 1.174164,1.154998 -0.12277,1.816645 -0.579085,0.295427 -1.236986,0.893159 -1.462003,1.328294 -0.46251,0.894396 -0.585583,0.930758 -1.305998,0.385864 -0.792678,-0.599551 -2.115666,-0.479562 -3.010033,0.272998 -0.590503,0.496876 -1.105759,0.666467 -2.070821,0.681587 -2.61018,0.0409 -4.592013,1.402349 -4.592013,3.154559 0,0.310003 -0.371761,0.876458 -0.826135,1.258789 -0.790345,0.665031 -0.819407,0.759522 -0.670823,2.181093 0.131079,1.254096 0.07653,1.553405 -0.349628,1.91829 -0.277717,0.237789 -0.58441,0.855954 -0.68154,1.3737 -0.150141,0.800324 -0.282707,0.941357 -0.884841,0.941357 -0.389533,0 -1.238995,0.26789 -1.887694,0.595312 -1.907068,0.962566 -2.832852,3.185863 -2.113951,5.076716 0.214606,0.564456 0.122162,0.89189 -0.546431,1.935453 -0.672662,1.049912 -0.778263,1.427751 -0.64343,2.302175 0.190534,1.235662 1.014391,2.659058 1.859587,3.212852 0.712229,0.46667 0.604603,1.429574 -0.159785,1.429574 -0.271125,0 -0.976187,0.193352 -1.566806,0.429671 -1.184125,0.473792 -1.847273,1.450158 -1.847273,2.719776 0,0.645306 -0.170963,0.875603 -0.910547,1.226559 -1.666548,0.790825 -2.331371,2.520505 -1.621657,4.219095 0.403137,0.96484 0.398399,1.04642 -0.09115,1.56914 -1.255969,1.34107 -1.294014,3.15777 -0.09293,4.43775 0.499833,0.53267 0.6318,0.89821 0.525336,1.45514 -0.283133,1.48112 1.006143,3.25745 2.364286,3.25745 0.357779,0 0.651804,0.21125 0.757488,0.54423 0.095,0.29932 0.584018,0.74036 1.086701,0.98007 0.743422,0.35451 1.063978,0.37922 1.717874,0.1324 l 0.803906,-0.30344 -0.183506,1.10931 c -0.212111,1.28223 -0.31521,1.50618 -0.693405,1.50618 -0.15132,0 -0.663578,0.18433 -1.13835,0.40962 -0.990507,0.47003 -1.465709,1.33122 -1.465709,2.65625 0,0.51354 -0.238416,1.24678 -0.536486,1.64994 -0.295068,0.3991 -0.607082,1.16067 -0.693365,1.69237 -0.196428,1.21044 0.612197,2.64179 1.761358,3.11779 0.597913,0.24766 0.79141,0.49964 0.79141,1.03059 0,1.5446 1.74188,2.84248 3.448603,2.56956 0.718562,-0.1149 1.080773,-0.0456 1.32988,0.2546 1.053587,1.26949 2.886654,1.48563 4.32447,0.5099 0.536092,-0.3638 1.010438,-0.66145 1.054102,-0.66145 0.04366,0 0.425329,0.30004 0.848145,0.66677 1.810248,1.57009 3.830248,1.46443 5.901752,-0.3087 1.107581,-0.94805 1.160404,-0.96392 1.840118,-0.55272 0.520404,0.31482 0.739747,0.71032 0.855615,1.54276 0.192791,1.3851 1.204845,2.35605 2.455772,2.35605 0.722635,0 0.932801,0.14788 1.297706,0.91309 0.858359,1.8 3.122625,2.50585 4.822006,1.50319 0.891277,-0.52586 0.990691,-0.534 1.605102,-0.13143 0.936474,0.6136 2.621186,0.34484 3.307478,-0.52763 0.471708,-0.59968 0.663781,-0.6559 1.786656,-0.52291 1.076585,0.12751 1.371229,0.0545 2.041924,-0.50608 0.569063,-0.47562 0.928767,-0.59772 1.312961,-0.44567 1.112099,0.44011 1.77918,0.24947 2.840379,-0.81172 0.582084,-0.58209 1.31549,-1.05834 1.629793,-1.05834 0.925551,0 1.711747,-0.73659 2.024029,-1.89631 l 0.291673,-1.08319 1.280465,0.15165 c 2.229325,0.26403 7.728911,3.06776 12.082731,6.15986 3.310923,2.35143 5.686678,5.88234 7.46036,11.08778 1.48511,4.35853 1.745933,6.72814 1.747364,15.875 0.0012,7.47244 -0.06115,8.63752 -0.700592,13.09688 -0.386032,2.69213 -0.837918,6.38307 -1.004191,8.20208 -0.925248,10.1221 -1.927639,14.44928 -4.137301,17.86017 -0.902317,1.39283 -4.355264,4.5442 -6.982076,6.37226 -2.090461,1.4548 -7.679842,4.29232 -11.174822,5.67304 -4.461492,1.76255 -3.713931,2.27374 2.070611,1.41589 z m 55.939277,-2.0849 c -0.3638,-0.20797 -0.54239,-0.37813 -0.39687,-0.37813 0.14552,0 0.56224,0.17016 0.92604,0.37813 0.3638,0.20796 0.5424,0.37812 0.39688,0.37812 -0.14552,0 -0.56224,-0.17016 -0.92605,-0.37812 z m -15.41197,-0.57211 c 0.1819,-0.0734 0.47955,-0.0734 0.66145,0 0.18191,0.0734 0.0331,0.13345 -0.33072,0.13345 -0.36381,0 -0.51263,-0.0601 -0.33073,-0.13345 z m 0.3689,-1.87529 c -0.28872,-0.6747 -0.28219,-0.69026 0.0898,-0.21401 0.22064,0.28247 0.40117,0.60989 0.40117,0.7276 0,0.40214 -0.17947,0.21441 -0.49099,-0.51359 z m -5.60207,-2.11667 -1.71215,-1.78593 1.78594,1.71214 c 0.98227,0.94169 1.78594,1.74536 1.78594,1.78594 0,0.19474 -0.26941,-0.0533 -1.85973,-1.71215 z m 11.38473,0.72761 c -0.21828,-0.14107 -0.27781,-0.25648 -0.13229,-0.25648 0.14552,0 0.44317,0.11541 0.66146,0.25648 0.21828,0.14106 0.27781,0.25648 0.13229,0.25648 -0.14552,0 -0.44318,-0.11542 -0.66146,-0.25648 z m -34.395833,-0.77814 c 0,-0.13693 0.137459,-0.33392 0.305464,-0.43775 0.180547,-0.11159 0.233972,-0.0731 0.130643,0.0941 -0.09615,0.15557 -0.02525,0.34316 0.157557,0.41686 0.200518,0.0808 0.14869,0.14229 -0.130643,0.15489 -0.254662,0.0115 -0.463021,-0.0911 -0.463021,-0.22808 z m 32.121733,-0.87551 -0.50403,-0.59531 0.59532,0.50403 c 0.55944,0.47366 0.71576,0.68659 0.50402,0.68659 -0.0502,0 -0.31809,-0.26789 -0.59531,-0.59531 z m -27.8884,-0.8275 c 0,-0.0549 0.208359,-0.2633 0.463021,-0.46302 0.419644,-0.32911 0.429002,-0.31975 0.09989,0.0999 -0.345644,0.44073 -0.562916,0.58088 -0.562916,0.36312 z m 26.04481,-0.76 -0.7771,-0.85989 0.85989,0.7771 c 0.80155,0.72437 0.98151,0.94269 0.77711,0.94269 -0.0455,0 -0.43249,-0.38696 -0.8599,-0.8599 z m -9.67439,-0.13229 c -0.32911,-0.41964 -0.31975,-0.429 0.0999,-0.0999 0.25466,0.19971 0.46302,0.40807 0.46302,0.46302 0,0.21776 -0.21727,0.0776 -0.56291,-0.36313 z M 93.217558,206.818 c 0.263389,-0.29104 0.538421,-0.52917 0.611181,-0.52917 0.07276,0 -0.08321,0.23813 -0.346597,0.52917 -0.263389,0.29104 -0.538421,0.52917 -0.611181,0.52917 -0.07276,0 0.08321,-0.23813 0.346597,-0.52917 z m 16.238122,-0.99219 c -0.3291,-0.41964 -0.31975,-0.429 0.0999,-0.0999 0.25466,0.19972 0.46302,0.40808 0.46302,0.46302 0,0.21776 -0.21727,0.0776 -0.56292,-0.36313 z m 8.74498,-0.79375 -0.64144,-0.7276 0.72761,0.64143 c 0.40018,0.35279 0.7276,0.68021 0.7276,0.72761 0,0.2075 -0.21426,0.0386 -0.81377,-0.64144 z m -1.60123,-1.85208 c -0.3291,-0.41964 -0.31975,-0.429 0.0999,-0.0999 0.25466,0.19972 0.46302,0.40807 0.46302,0.46302 0,0.21776 -0.21727,0.0776 -0.56292,-0.36313 z m -0.68641,-0.92604 c -0.39665,-0.51288 -0.64617,-0.99219 -0.51651,-0.99219 0.0646,0 0.31251,0.29766 0.55088,0.66146 0.44605,0.68075 0.42121,0.91978 -0.0344,0.33073 z m -15.58558,-0.58817 c -0.0901,-0.23476 -0.0896,-0.50108 0.001,-0.59182 0.0907,-0.0907 0.16498,0.0335 0.16498,0.276 0,0.73731 1.00596,0.53971 1.13913,-0.22376 0.1062,-0.6088 0.11324,-0.60324 0.0837,0.0661 -0.024,0.54472 -0.18416,0.75245 -0.62872,0.81558 -0.3633,0.0516 -0.66053,-0.0822 -0.76029,-0.34214 z m 13.96414,-0.18997 c -0.0456,-0.81824 0.39255,-1.21173 0.8433,-0.7574 0.23453,0.23639 0.20225,0.27 -0.13576,0.14136 -0.33812,-0.12868 -0.4701,0.009 -0.55567,0.57964 l -0.11223,0.74839 z m -13.98689,-2.46301 c 0.002,-0.7276 0.0534,-0.99385 0.11419,-0.59167 0.0608,0.40218 0.0592,0.99749 -0.004,1.32292 -0.0628,0.32542 -0.11256,-0.004 -0.11057,-0.73125 z m 5.76605,-0.28663 c 0.0127,-0.30822 0.0754,-0.37092 0.15985,-0.15985 0.0764,0.191 0.067,0.4192 -0.0209,0.50712 -0.0879,0.0879 -0.15045,-0.0684 -0.13896,-0.34727 z m -4.20264,-0.50712 c 0.005,-0.43656 0.0647,-0.58312 0.13177,-0.32569 0.0671,0.25743 0.0627,0.61462 -0.01,0.79375 -0.0725,0.17913 -0.12737,-0.0315 -0.12197,-0.46806 z m 0.25478,-1.98437 c 0,-0.3638 0.0601,-0.51263 0.13345,-0.33073 0.0734,0.1819 0.0734,0.47956 0,0.66146 -0.0734,0.1819 -0.13345,0.0331 -0.13345,-0.33073 z m 3.43958,0 c 0,-0.3638 0.0601,-0.51263 0.13345,-0.33073 0.0734,0.1819 0.0734,0.47956 0,0.66146 -0.0734,0.1819 -0.13345,0.0331 -0.13345,-0.33073 z m -5.00748,-0.79375 c 0,-0.50932 0.0545,-0.71768 0.121,-0.46302 0.0666,0.25466 0.0666,0.67138 0,0.92604 -0.0665,0.25466 -0.121,0.0463 -0.121,-0.46302 z m 1.83248,-1.05833 c 0,-0.36381 0.06,-0.51263 0.13345,-0.33073 0.0734,0.1819 0.0734,0.47955 0,0.66145 -0.0734,0.18191 -0.13345,0.0331 -0.13345,-0.33072 z m 11.88536,-0.15435 c 0.0127,-0.30822 0.0754,-0.37091 0.15985,-0.15985 0.0764,0.191 0.067,0.4192 -0.0209,0.50712 -0.0879,0.0879 -0.15045,-0.0684 -0.13896,-0.34727 z m -8.92427,-1.96232 c 0,-1.23693 0.0456,-1.74294 0.10128,-1.12448 0.0557,0.61846 0.0557,1.63049 0,2.24896 -0.0557,0.61846 -0.10128,0.11245 -0.10128,-1.12448 z m -4.54859,1.05833 c 0,-0.3638 0.0601,-0.51263 0.13345,-0.33073 0.0734,0.1819 0.0734,0.47956 0,0.66146 -0.0734,0.1819 -0.13345,0.0331 -0.13345,-0.33073 z m 1.85208,-0.79375 c 0,-0.3638 0.0601,-0.51263 0.13345,-0.33073 0.0734,0.1819 0.0734,0.47956 0,0.66146 -0.0734,0.1819 -0.13345,0.0331 -0.13345,-0.33073 z m -1.5875,-1.05833 c 0,-0.3638 0.0601,-0.51263 0.13345,-0.33073 0.0734,0.1819 0.0734,0.47956 0,0.66146 -0.0734,0.1819 -0.13345,0.0331 -0.13345,-0.33073 z m 1.85209,-0.52917 c 0,-0.3638 0.0601,-0.51263 0.13345,-0.33073 0.0734,0.1819 0.0734,0.47956 0,0.66146 -0.0734,0.1819 -0.13345,0.0331 -0.13345,-0.33073 z m 10.29786,-0.15434 c 0.0127,-0.30822 0.0754,-0.37092 0.15985,-0.15985 0.0764,0.191 0.067,0.4192 -0.0209,0.50712 -0.0879,0.0879 -0.15045,-0.0684 -0.13896,-0.34727 z m -1.5875,-0.79375 c 0.0127,-0.30822 0.0754,-0.37092 0.15985,-0.15985 0.0764,0.191 0.067,0.4192 -0.0209,0.50712 -0.0879,0.0879 -0.15045,-0.0684 -0.13896,-0.34727 z m -10.31875,-0.26458 c 0.0127,-0.30823 0.0754,-0.37092 0.15985,-0.15985 0.0764,0.19099 0.067,0.4192 -0.0209,0.50711 -0.0879,0.0879 -0.15045,-0.0683 -0.13896,-0.34726 z m 1.87297,-0.37483 c 0,-0.3638 0.0601,-0.51263 0.13345,-0.33073 0.0734,0.1819 0.0734,0.47956 0,0.66146 -0.0734,0.1819 -0.13345,0.0331 -0.13345,-0.33073 z m 8.18119,-0.6835 c 0.0127,-0.30823 0.0754,-0.37092 0.15986,-0.15986 0.0764,0.191 0.067,0.4192 -0.0209,0.50712 -0.0879,0.0879 -0.15045,-0.0684 -0.13897,-0.34726 z m -5.78033,-0.63941 c 0,-0.50933 0.0545,-0.71769 0.121,-0.46303 0.0666,0.25467 0.0666,0.67138 0,0.92605 -0.0665,0.25466 -0.121,0.0463 -0.121,-0.46302 z m 7.12414,0.26458 c 0,-0.3638 0.0601,-0.51263 0.13345,-0.33073 0.0734,0.1819 0.0734,0.47956 0,0.66146 -0.0734,0.1819 -0.13345,0.0331 -0.13345,-0.33073 z m -11.13339,-0.15434 c 0.0127,-0.30823 0.0754,-0.37092 0.15985,-0.15985 0.0764,0.19099 0.067,0.4192 -0.0209,0.50711 -0.0879,0.0879 -0.15046,-0.0684 -0.13897,-0.34726 z m 1.85208,-0.26458 c 0.0127,-0.30823 0.0754,-0.37092 0.15986,-0.15986 0.0764,0.191 0.067,0.4192 -0.0209,0.50712 -0.0879,0.0879 -0.15045,-0.0684 -0.13897,-0.34726 z m 7.73132,-1.43316 c 0,-0.80037 0.0496,-1.12779 0.11022,-0.72761 0.0606,0.40018 0.0606,1.05503 0,1.45521 -0.0606,0.40018 -0.11022,0.0728 -0.11022,-0.7276 z m 1.28541,0.26458 c 0,-0.3638 0.06,-0.51263 0.13345,-0.33073 0.0734,0.1819 0.0734,0.47956 0,0.66146 -0.0734,0.1819 -0.13345,0.0331 -0.13345,-0.33073 z m -6.60478,-0.66146 c 0.005,-0.43656 0.0647,-0.58312 0.13177,-0.32569 0.0671,0.25743 0.0627,0.61462 -0.01,0.79375 -0.0725,0.17913 -0.12737,-0.0315 -0.12197,-0.46806 z m 6.34019,-1.19062 c 0,-0.36381 0.0601,-0.51263 0.13345,-0.33073 0.0734,0.1819 0.0734,0.47955 0,0.66145 -0.0734,0.18191 -0.13345,0.0331 -0.13345,-0.33072 z m -6.07561,-1.19063 c 0.005,-0.43656 0.0647,-0.58312 0.13177,-0.32569 0.0671,0.25743 0.0627,0.61462 -0.01,0.79375 -0.0725,0.17913 -0.12736,-0.0315 -0.12197,-0.46806 z m 5.81103,-0.66146 c 0,-0.3638 0.0601,-0.51263 0.13345,-0.33073 0.0734,0.1819 0.0734,0.47956 0,0.66146 -0.0734,0.1819 -0.13345,0.0331 -0.13345,-0.33073 z m -7.16464,-0.6835 c 0.0127,-0.30823 0.0754,-0.37092 0.15985,-0.15986 0.0764,0.191 0.067,0.4192 -0.0209,0.50712 -0.0879,0.0879 -0.15046,-0.0684 -0.13897,-0.34726 z m 1.60839,-0.63941 c 0,-0.36381 0.06,-0.51263 0.13345,-0.33073 0.0734,0.1819 0.0734,0.47955 0,0.66146 -0.0734,0.1819 -0.13345,0.0331 -0.13345,-0.33073 z m -2.66672,-0.94809 c 0.0127,-0.30823 0.0754,-0.37092 0.15985,-0.15986 0.0764,0.191 0.067,0.4192 -0.0209,0.50712 -0.0879,0.0879 -0.15045,-0.0684 -0.13896,-0.34726 z m 1.35361,-0.24254 c 0.005,-0.43656 0.0647,-0.58312 0.13177,-0.32569 0.0671,0.25743 0.0627,0.61462 -0.01,0.79375 -0.0725,0.17913 -0.12737,-0.0315 -0.12197,-0.46806 z m -1.08903,-0.8158 c 0.0127,-0.30822 0.0754,-0.37092 0.15985,-0.15985 0.0764,0.191 0.067,0.4192 -0.0209,0.50712 -0.0879,0.0879 -0.15046,-0.0683 -0.13897,-0.34727 z m 2.70062,-0.7717 c 0.002,-0.7276 0.0534,-0.99386 0.11419,-0.59167 0.0608,0.40218 0.0592,0.99749 -0.004,1.32291 -0.0628,0.32542 -0.11256,-0.004 -0.11057,-0.73124 z m 0.26458,-4.49792 c 0.002,-0.7276 0.0534,-0.99385 0.11419,-0.59167 0.0608,0.40218 0.0592,0.9975 -0.004,1.32292 -0.0628,0.32542 -0.11256,-0.004 -0.11058,-0.73125 z m 4.00204,-1.81747 c -0.0765,-0.19925 -0.0948,-1.00292 -0.0406,-1.78594 l 0.0984,-1.42367 0.0489,1.6316 c 0.0305,1.0176 0.1734,1.68182 0.37967,1.76505 0.25904,0.10452 0.25724,0.13798 -0.008,0.15434 -0.18647,0.0115 -0.40159,-0.14213 -0.47805,-0.34138 z m -3.74106,-1.7544 c 0,-0.65484 0.0516,-0.92273 0.11466,-0.59531 0.0631,0.32742 0.0631,0.8632 0,1.19062 -0.0631,0.32742 -0.11466,0.0595 -0.11466,-0.59531 z m 4.49791,0 c 0,-0.65484 0.0516,-0.92273 0.11466,-0.59531 0.0631,0.32742 0.0631,0.8632 0,1.19062 -0.0631,0.32742 -0.11466,0.0595 -0.11466,-0.59531 z M 111.149,167.1305 c 0,-0.65484 0.0516,-0.92273 0.11466,-0.59531 0.0631,0.32742 0.0631,0.8632 0,1.19063 -0.0631,0.32742 -0.11466,0.0595 -0.11466,-0.59532 z m -3.69425,-0.66146 c 10e-4,-0.87312 0.0509,-1.19841 0.10977,-0.72286 0.0589,0.47555 0.0577,1.18992 -0.003,1.5875 -0.0604,0.39758 -0.10855,0.008 -0.10707,-0.86464 z m 4.488,0.1323 c 0,-0.65485 0.0516,-0.92274 0.11466,-0.59532 0.0631,0.32743 0.0631,0.86321 0,1.19063 -0.0631,0.32742 -0.11466,0.0595 -0.11466,-0.59531 z m -0.52917,-2.91042 c 0,-0.65484 0.0516,-0.92273 0.11466,-0.59531 0.0631,0.32742 0.0631,0.8632 0,1.19062 -0.0631,0.32742 -0.11466,0.0595 -0.11466,-0.59531 z m -3.69694,-2.11667 c 0,-0.80036 0.0496,-1.12778 0.11022,-0.7276 0.0606,0.40018 0.0606,1.05503 0,1.45521 -0.0606,0.40018 -0.11022,0.0728 -0.11022,-0.72761 z m 4.49791,0 c 0,-0.80036 0.0496,-1.12778 0.11022,-0.7276 0.0606,0.40018 0.0606,1.05503 0,1.45521 -0.0606,0.40018 -0.11022,0.0728 -0.11022,-0.72761 z m -0.53278,-1.71979 c 0.002,-0.7276 0.0534,-0.99386 0.11419,-0.59167 0.0608,0.40218 0.0592,0.99749 -0.004,1.32291 -0.0628,0.32543 -0.11256,-0.004 -0.11058,-0.73124 z m -3.71311,-1.85208 c 0.003,-0.58208 0.0571,-0.78906 0.1204,-0.45994 0.0633,0.32912 0.0609,0.80537 -0.005,1.05834 -0.0662,0.25296 -0.118,-0.0163 -0.11506,-0.5984 z m 4.50325,-0.92599 c 0,-0.65485 0.0516,-0.92274 0.11466,-0.59532 0.0631,0.32743 0.0631,0.86321 0,1.19063 -0.0631,0.32742 -0.11466,0.0595 -0.11466,-0.59531 z m -0.5345,-0.66146 c 0.003,-0.58208 0.0571,-0.78906 0.1204,-0.45994 0.0633,0.32912 0.0609,0.80537 -0.005,1.05834 -0.0662,0.25296 -0.118,-0.0163 -0.11506,-0.5984 z m -5.42925,-3.10886 c 0.0557,0.61847 0.0557,1.6305 0,2.24896 -0.1351,1.50012 -0.13505,-3.74907 0,-2.24896 z m 1.73042,1.12448 c 0,-0.65484 0.0516,-0.92273 0.11466,-0.59531 0.0631,0.32742 0.0631,0.8632 0,1.19063 -0.0631,0.32742 -0.11466,0.0595 -0.11466,-0.59532 z m 4.49792,-1.05833 c 0,-0.65484 0.0516,-0.92273 0.11466,-0.59531 0.0631,0.32742 0.0631,0.8632 0,1.19062 -0.0631,0.32743 -0.11466,0.0595 -0.11466,-0.59531 z m -0.54965,-0.39687 c 0.005,-0.43657 0.0647,-0.58313 0.13177,-0.3257 0.0671,0.25743 0.0627,0.61462 -0.01,0.79375 -0.0725,0.17913 -0.12737,-0.0315 -0.12197,-0.46805 z m -3.68903,-2.38125 c 0.003,-0.58209 0.0571,-0.78906 0.12041,-0.45994 0.0633,0.32912 0.0609,0.80537 -0.005,1.05833 -0.0662,0.25297 -0.118,-0.0163 -0.11507,-0.59839 z m 0.26993,-3.57188 c 0,-0.65484 0.0516,-0.92273 0.11466,-0.59531 0.0631,0.32742 0.0631,0.8632 0,1.19062 -0.0631,0.32743 -0.11466,0.0595 -0.11466,-0.59531 z m 3.76439,-2.38125 c 0.0899,-0.14552 0.21603,-0.26458 0.2802,-0.26458 0.0642,0 0.11668,0.11906 0.11668,0.26458 0,0.14552 -0.12609,0.26458 -0.2802,0.26458 -0.15411,0 -0.20662,-0.11906 -0.11668,-0.26458 z m -11.24479,-0.52917 c -0.15576,-0.29104 -0.22367,-0.52916 -0.15091,-0.52916 0.0728,0 0.25973,0.23812 0.41549,0.52916 0.15576,0.29105 0.22367,0.52917 0.15091,0.52917 -0.0728,0 -0.25973,-0.23812 -0.41549,-0.52917 z m 7.7343,-0.26458 c 0,-0.50932 0.0545,-0.71768 0.121,-0.46302 0.0665,0.25466 0.0665,0.67138 0,0.92604 -0.0666,0.25466 -0.121,0.0463 -0.121,-0.46302 z m -8.5618,-0.99219 c -0.32911,-0.41964 -0.31975,-0.429 0.0999,-0.0999 0.44072,0.34564 0.58088,0.56291 0.36312,0.56291 -0.0549,0 -0.2633,-0.20835 -0.46302,-0.46302 z m 11.7574,-1.25677 c 10e-4,-0.87312 0.0509,-1.19841 0.10977,-0.72286 0.0589,0.47555 0.0577,1.18992 -0.003,1.5875 -0.0604,0.39757 -0.10855,0.008 -0.10707,-0.86464 z m -9.60698,0.39688 c -0.15576,-0.29104 -0.22367,-0.52917 -0.15091,-0.52917 0.0728,0 0.25973,0.23813 0.41549,0.52917 0.15576,0.29104 0.22367,0.52916 0.15091,0.52916 -0.0728,0 -0.25973,-0.23812 -0.41549,-0.52916 z m 6.66616,-0.39688 c 0.005,-0.43656 0.0647,-0.58312 0.13177,-0.32569 0.0671,0.25743 0.0627,0.61462 -0.01,0.79375 -0.0725,0.17913 -0.12736,-0.0315 -0.12197,-0.46806 z m 3.72465,-0.39687 c 0,-0.65485 0.0516,-0.92274 0.11466,-0.59531 0.0631,0.32742 0.0631,0.8632 0,1.19062 -0.0631,0.32742 -0.11466,0.0595 -0.11466,-0.59531 z m -15.029304,-1.12448 -1.579218,-1.65365 1.653646,1.57922 c 1.536096,1.46696 1.774719,1.72807 1.579218,1.72807 -0.04094,0 -0.785077,-0.74414 -1.653646,-1.65364 z m 11.559434,-0.46302 c 0,-0.3638 0.0601,-0.51263 0.13345,-0.33073 0.0734,0.1819 0.0734,0.47956 0,0.66146 -0.0734,0.1819 -0.13345,0.0331 -0.13345,-0.33073 z m 3.71397,-1.45521 c 0.005,-0.43656 0.0647,-0.58312 0.13177,-0.32569 0.0671,0.25743 0.0627,0.61461 -0.01,0.79375 -0.0725,0.17913 -0.12736,-0.0315 -0.12197,-0.46806 z m -17.67151,-0.19844 -0.504028,-0.59531 0.595312,0.50403 c 0.559447,0.47366 0.715762,0.68659 0.504028,0.68659 -0.05021,0 -0.318097,-0.26789 -0.595312,-0.59531 z m 22.40461,0.46302 c 0,-0.14552 0.22814,-0.6813 0.50699,-1.19062 0.27884,-0.50932 0.50698,-0.80698 0.50698,-0.66146 0,0.14552 -0.22814,0.6813 -0.50698,1.19062 -0.27885,0.50933 -0.50699,0.80698 -0.50699,0.66146 z M 109.7749,137.872 c 0.0127,-0.30823 0.0754,-0.37092 0.15986,-0.15985 0.0764,0.19099 0.067,0.41919 -0.0209,0.50711 -0.0879,0.0879 -0.15045,-0.0683 -0.13897,-0.34726 z m -11.013541,-0.97014 -1.045884,-1.12448 1.124479,1.04588 c 0.618463,0.57524 1.124479,1.08126 1.124479,1.12448 0,0.20018 -0.230412,-1.3e-4 -1.203074,-1.04588 z m -4.651508,-0.13229 c -0.329107,-0.41965 -0.319749,-0.429 0.09989,-0.0999 0.254661,0.19972 0.463021,0.40808 0.463021,0.46302 0,0.21776 -0.217272,0.0776 -0.562916,-0.36312 z m 18.356719,-0.46302 c 0.003,-0.58209 0.0571,-0.78906 0.12041,-0.45994 0.0633,0.32912 0.0609,0.80537 -0.005,1.05833 -0.0662,0.25297 -0.118,-0.0163 -0.11507,-0.59839 z m -2.42708,0.24253 c 0.0127,-0.30822 0.0754,-0.37092 0.15985,-0.15985 0.0764,0.19099 0.067,0.4192 -0.0209,0.50712 -0.0879,0.0879 -0.15045,-0.0684 -0.13896,-0.34727 z m -7.56152,-0.81002 c -1.63016,-0.85026 -6.254691,-3.87384 -8.466662,-5.53562 -3.47451,-2.61028 -7.011458,-6.48054 -7.011458,-7.67219 0,-0.42079 0.24253,-0.75632 0.728229,-1.00749 1.142328,-0.59072 1.739711,-1.41425 1.901082,-2.62076 0.126053,-0.94245 0.286456,-1.1776 1.048727,-1.53739 1.216133,-0.57402 1.613629,-1.19244 1.613629,-2.51045 0,-0.91047 0.126787,-1.1927 0.706425,-1.5725 0.554808,-0.36352 0.809575,-0.39844 1.187034,-0.16272 0.264336,0.16508 0.963888,0.30015 1.55456,0.30015 0.82172,0 1.242013,-0.17089 1.789528,-0.7276 0.427747,-0.43494 1.034852,-0.74492 1.509327,-0.77065 0.436563,-0.0237 1.105049,-0.12377 1.485519,-0.22243 0.93529,-0.24254 1.93783,0.85024 3.50137,3.8165 2.33258,4.42525 3.5416,9.40181 3.27028,13.46111 -0.19236,2.87804 -0.80011,4.77384 -1.96763,6.13783 -0.99122,1.15801 -1.57949,1.28686 -2.84996,0.62421 z m 11.03179,-0.22626 c 0.005,-0.43657 0.0647,-0.58313 0.13178,-0.3257 0.0671,0.25743 0.0627,0.61462 -0.01,0.79375 -0.0725,0.17913 -0.12736,-0.0315 -0.12197,-0.46805 z m -16.613174,-0.19844 -0.504028,-0.59531 0.595313,0.50402 c 0.327422,0.27722 0.595312,0.54511 0.595312,0.59532 0,0.21173 -0.212935,0.0554 -0.686597,-0.50403 z m 13.407484,-0.35278 c 0.0127,-0.30822 0.0754,-0.37092 0.15985,-0.15985 0.0764,0.191 0.067,0.4192 -0.0209,0.50712 -0.0879,0.0879 -0.15045,-0.0684 -0.13896,-0.34727 z m -14.871302,-0.83785 c -0.329108,-0.41964 -0.319749,-0.429 0.09989,-0.0999 0.254662,0.19972 0.463021,0.40808 0.463021,0.46302 0,0.21776 -0.217272,0.0776 -0.562915,-0.36313 z m 17.283242,-0.46302 c 0.005,-0.43656 0.0647,-0.58312 0.13178,-0.32569 0.0671,0.25743 0.0627,0.61462 -0.01,0.79375 -0.0725,0.17913 -0.12736,-0.0315 -0.12197,-0.46806 z m -2.14736,-0.0221 c 0.0127,-0.30822 0.0754,-0.37091 0.15986,-0.15985 0.0764,0.191 0.067,0.4192 -0.0209,0.50712 -0.0879,0.0879 -0.15045,-0.0684 -0.13897,-0.34727 z m 3.19589,-0.11024 c 0,-0.3638 0.0601,-0.51263 0.13345,-0.33073 0.0734,0.1819 0.0734,0.47956 0,0.66146 -0.0734,0.1819 -0.13345,0.0331 -0.13345,-0.33073 z m -20.434715,-1.25677 -0.641433,-0.7276 0.727604,0.64143 c 0.680056,0.59952 0.848939,0.81378 0.641433,0.81378 -0.04739,0 -0.374816,-0.32743 -0.727604,-0.72761 z m 19.640965,-0.33073 c 0,-0.3638 0.0601,-0.51263 0.13345,-0.33073 0.0734,0.1819 0.0734,0.47956 0,0.66146 -0.0734,0.1819 -0.13345,0.0331 -0.13345,-0.33073 z m -2.13755,-0.15434 c 0.0127,-0.30822 0.0754,-0.37092 0.15985,-0.15985 0.0764,0.191 0.067,0.4192 -0.0209,0.50712 -0.0879,0.0879 -0.15045,-0.0684 -0.13896,-0.34727 z m 3.19589,-0.11024 c 0,-0.3638 0.0601,-0.51263 0.13345,-0.33073 0.0734,0.1819 0.0734,0.47956 0,0.66146 -0.0734,0.1819 -0.13345,0.0331 -0.13345,-0.33073 z m -0.81464,-1.21263 c 0.0127,-0.30822 0.0754,-0.37091 0.15985,-0.15985 0.0764,0.191 0.067,0.4192 -0.0209,0.50712 -0.0879,0.0879 -0.15045,-0.0684 -0.13896,-0.34727 z m -2.07617,-0.6394 c 0,-0.50933 0.0545,-0.71769 0.121,-0.46303 0.0665,0.25467 0.0665,0.67138 0,0.92605 -0.0666,0.25466 -0.121,0.0463 -0.121,-0.46302 z m 3.175,0 c 0,-0.50933 0.0544,-0.71769 0.121,-0.46303 0.0666,0.25467 0.0666,0.67138 0,0.92605 -0.0666,0.25466 -0.121,0.0463 -0.121,-0.46302 z m -24.022823,-0.33077 -0.777105,-0.8599 0.859896,0.77711 c 0.801543,0.72437 0.981512,0.94268 0.777105,0.94268 -0.04554,0 -0.432488,-0.38695 -0.859896,-0.85989 z m 32.428103,0.49541 c 0,-0.0549 0.20836,-0.2633 0.46302,-0.46302 0.41964,-0.3291 0.429,-0.31975 0.0999,0.0999 -0.34564,0.44073 -0.56291,0.58088 -0.56291,0.36312 z m -9.23953,-0.84819 c 0.0127,-0.30823 0.0754,-0.37092 0.15985,-0.15985 0.0764,0.19099 0.067,0.4192 -0.0209,0.50711 -0.0879,0.0879 -0.15045,-0.0684 -0.13896,-0.34726 z m 10.69474,-0.90399 c 0.26339,-0.29105 0.53842,-0.52917 0.61118,-0.52917 0.0728,0 -0.0832,0.23812 -0.3466,0.52917 -0.26339,0.29104 -0.53842,0.52916 -0.61118,0.52916 -0.0728,0 0.0832,-0.23812 0.3466,-0.52916 z m -9.63641,-0.17639 c -0.0115,-0.3153 -0.16971,-0.63332 -0.35161,-0.70672 -0.25905,-0.10453 -0.25725,-0.13798 0.008,-0.15434 0.40161,-0.0247 0.69369,0.6141 0.50056,1.09486 -0.075,0.1867 -0.14576,0.0815 -0.15725,-0.2338 z m -26.892736,-1.47689 -0.777105,-0.8599 0.859896,0.77711 c 0.472942,0.42741 0.859895,0.81436 0.859895,0.85989 0,0.20441 -0.218315,0.0244 -0.942686,-0.7771 z m 38.248936,-0.33108 c 0.34177,-0.3638 0.68094,-0.66146 0.7537,-0.66146 0.0728,0 -0.14734,0.29766 -0.48912,0.66146 -0.34177,0.3638 -0.68094,0.66146 -0.7537,0.66146 -0.0728,0 0.14734,-0.29766 0.48912,-0.66146 z m -14.77489,-0.92609 c 0,-0.3638 0.0601,-0.51263 0.13345,-0.33073 0.0734,0.1819 0.0734,0.47956 0,0.66146 -0.0734,0.1819 -0.13345,0.0331 -0.13345,-0.33073 z m -25.07004,-0.59535 -0.504028,-0.59532 0.595313,0.50403 c 0.559446,0.47366 0.715761,0.6866 0.504028,0.6866 -0.05021,0 -0.318098,-0.26789 -0.595313,-0.59531 z m 22.81199,-6.69088 c -0.25532,-0.66535 -0.18,-0.83702 0.1319,-0.30066 0.15444,0.26558 0.22506,0.5386 0.15694,0.60673 -0.0681,0.0681 -0.1981,-0.0696 -0.28884,-0.30607 z m -1.22331,-2.23873 c -0.15576,-0.29104 -0.22367,-0.52917 -0.15091,-0.52917 0.0728,0 0.25973,0.23813 0.41549,0.52917 0.38124,0.71236 0.0939,0.66983 -0.26458,0 z m 77.01463,-15.76474 c 0.0127,-0.308221 0.0754,-0.370916 0.15986,-0.159849 0.0764,0.190999 0.067,0.419199 -0.0209,0.507119 -0.0879,0.0879 -0.15046,-0.0683 -0.13897,-0.34727 z m -7.03467,-6.008041 c 0.21956,-0.313468 0.3992,-0.44284 0.3992,-0.287494 z m 0.15551,-1.664872 c 0.0127,-0.308225 0.0754,-0.370919 0.15985,-0.159852 0.0764,0.190996 0.067,0.419199 -0.0209,0.507118 -0.0879,0.08792 -0.15045,-0.06835 -0.13896,-0.347266 z m 1.05833,-2.645831 c 0.0127,-0.308225 0.0754,-0.370919 0.15985,-0.159853 0.0764,0.190996 0.067,0.4192 -0.0209,0.507118 -0.0879,0.08792 -0.15045,-0.06835 -0.13896,-0.347265 z m -3.70417,-2.910414 c 0.0127,-0.308224 0.0754,-0.370919 0.15986,-0.159852 0.0764,0.190996 0.067,0.419199 -0.0209,0.507118 -0.0879,0.08792 -0.15045,-0.06835 -0.13897,-0.347266 z m 0.81464,-2.75608 c 0,-0.363802 0.0601,-0.51263 0.13345,-0.330729 0.0734,0.181901 0.0734,0.479557 0,0.661458 -0.0734,0.181901 -0.13345,0.03307 -0.13345,-0.330729 z m -2.62088,-0.661458 c 0.003,-0.582084 0.0571,-0.789055 0.1204,-0.459936 0.0633,0.329118 0.0609,0.805368 -0.005,1.058333 -0.0662,0.252965 -0.118,-0.01631 -0.11506,-0.598397 z m 2.37714,-0.862625 c -0.30892,-0.658976 -0.30157,-0.680349 0.0969,-0.28192 0.23711,0.237113 0.38752,0.557978 0.33425,0.713034 -0.0533,0.155056 -0.24727,-0.03894 -0.43111,-0.431114 z m -1.17056,-0.773325 c 0.191,-0.07643 0.4192,-0.06703 0.50712,0.02089 0.0879,0.08792 -0.0683,0.150453 -0.34727,0.138964 -0.30822,-0.0127 -0.37092,-0.07539 -0.15985,-0.159852 z m -5.55307,-14.986716 c -0.0984,-0.482817 -0.0616,-0.65679 0.1041,-0.491125 0.14109,0.141098 0.20969,0.477547 0.15244,0.747666 -0.0771,0.363754 -0.14364,0.297221 -0.25654,-0.256541 z m -2.26867,-1.952629 c 0.32742,0.06306 0.0595,0.114662 -0.59532,0.114662 -1.58752,0 -0.19901,-0.267642 0.59532,-0.114662 z m -7.00607,-5.104536 c -0.47591,-0.290164 -0.73252,-0.528015 -0.57024,-0.528559 0.53457,-0.0018 6.01255,3.846741 0.57024,0.528559 z m -2.60511,-3.109235 -0.64143,-0.727605 0.72761,0.641434 c 0.40018,0.352788 0.7276,0.68021 0.7276,0.727604 0,0.207506 -0.21426,0.03862 -0.81378,-0.641433 z m -1.83205,-1.256788 c -0.36381,-0.207968 -0.53539,-0.382343 -0.3813,-0.3875 0.15409,-0.0052 0.51127,0.165432 0.79375,0.379085 0.65325,0.494094 0.4446,0.49835 -0.41245,0.0084 z m -5.27078,-1.344944 c 0.0127,-0.308225 0.0754,-0.37092 0.15985,-0.159853 0.0764,0.190996 0.067,0.419199 -0.0209,0.507118 -0.0879,0.08792 -0.15045,-0.06835 -0.13896,-0.347265 z M 138.89996,44.89301 c 0,-0.363802 0.0601,-0.51263 0.13345,-0.330729 0.0734,0.181901 0.0734,0.479557 0,0.661458 -0.0734,0.181901 -0.13345,0.03307 -0.13345,-0.330729 z m 0.70236,0.348426 c 0.191,-0.07643 0.4192,-0.06703 0.50712,0.02089 0.0879,0.08792 -0.0684,0.150453 -0.34727,0.138964 -0.30822,-0.0127 -0.37092,-0.07539 -0.15985,-0.159852 z m 2.64583,-0.529167 c 0.191,-0.07643 0.4192,-0.06703 0.50712,0.02089 0.0879,0.08792 -0.0684,0.150453 -0.34726,0.138965 -0.30823,-0.0127 -0.37092,-0.07539 -0.15986,-0.159853 z M 90.704017,37.649365 c 0,-0.05494 0.208359,-0.263301 0.463021,-0.463021 0.419644,-0.329107 0.429002,-0.319749 0.09989,0.0999 -0.345644,0.440729 -0.562916,0.580887 -0.562916,0.363126 z m 41.770413,-1.156876 c -0.32911,-0.419644 -0.31975,-0.429002 0.0999,-0.09989 0.44073,0.345643 0.58088,0.562915 0.36312,0.562915 -0.0549,0 -0.2633,-0.208359 -0.46302,-0.463021 z m -8.09715,-2.895332 c 0.25743,-0.06708 0.61462,-0.06267 0.79375,0.0098 0.17913,0.07248 -0.0315,0.127362 -0.46806,0.12197 -0.43656,-0.0054 -0.58312,-0.06469 -0.32569,-0.131773 z m -1.28695,-0.676542 -0.50402,-0.595313 0.59531,0.504028 c 0.32742,0.277215 0.59531,0.545106 0.59531,0.595312 0,0.211734 -0.21293,0.05542 -0.6866,-0.504027 z m 3.39858,0.412928 c 0.25466,-0.06655 0.67138,-0.06655 0.92604,0 0.25466,0.06655 0.0463,0.121 -0.46302,0.121 -0.50932,0 -0.71768,-0.05445 -0.46302,-0.121 z m -4.56406,-2.198866 c -0.15576,-0.291042 -0.22367,-0.529167 -0.15091,-0.529167 0.0728,0 0.25973,0.238125 0.41549,0.529167 0.15576,0.291042 0.22367,0.529167 0.15091,0.529167 -0.0728,0 -0.25973,-0.238125 -0.41549,-0.529167 z"
         id="path2"
         sodipodi:insensitive="true"
         sodipodi:nodetypes="ccccccccccccsssssssssssssssscsssssssssssssssssssssscsssssssssssscssscssssssssssssssssssssssssscssssssscsssssscsssssssssssssssssssssssssssssssssssssssssssssssssssssssssssssssssssssssscssssssssscssssssssssssssssscsssssssssccssssssssssssssscsssssssssssssssscssssssssscssssssssssssssssssscsssssssssssssccssssccsssscscscccssssscscccscssscsssccsscsssssssssssscssscssscssscsssssssssssssssssscssssssssccsscssssssssssssssssscsscscccscsscscccscsssssssscssssssscscccssssscsccccsccccccsssccsssssssssssscscccsssssssssssssssscsccccscccsssscscccsssscssscsscsccccscccscsssssssssssssscsssssscscccssssscscccscssscsssscsscscccscsssssssssssssscsssssssscscccsssssssssssssssssssssscscccscssssssssssssscscccsssssscssscsssscsssssssscssssssssscsssssscsssssssssssssssssscscsccccsscsssssscssscsssssssssssssssscccssssssssssssssssscsccsccsssssssssssssssssssssscsssscssssssssscsssssssssssssssssssssssssssscsssssssssss" /><path
         style="display:inline;fill:#ff00ff"
         d="m 72.712351,216.51173 c 0,-0.21216 1.170105,-0.8227 2.844271,-1.48409 3.49498,-1.38072 9.084361,-4.21824 11.174822,-5.67304 2.626812,-1.82806 6.079759,-4.97943 6.982076,-6.37226 2.209662,-3.41089 3.212053,-7.73807 4.137301,-17.86017 0.166273,-1.81901 0.618159,-5.50995 1.004191,-8.20208 0.639438,-4.45936 0.701762,-5.62444 0.700592,-13.09688 -0.0014,-9.14686 -0.262254,-11.51647 -1.747364,-15.875 -1.773682,-5.20544 -4.149437,-8.73635 -7.46036,-11.08778 -4.35382,-3.0921 -9.853406,-5.89583 -12.082731,-6.15986 l -1.280465,-0.15165 -0.291673,1.08319 c -0.312282,1.15972 -1.098478,1.89631 -2.024029,1.89631 -0.314303,0 -1.047709,0.47625 -1.629793,1.05834 -1.061199,1.06119 -1.72828,1.25183 -2.840379,0.81172 -0.384194,-0.15205 -0.743898,-0.03 -1.312961,0.44567 -0.670695,0.56056 -0.965339,0.63359 -2.041924,0.50608 -1.122875,-0.13299 -1.314948,-0.0768 -1.786656,0.52291 -0.686292,0.87247 -2.371004,1.14123 -3.307478,0.52763 -0.614411,-0.40257 -0.713825,-0.39443 -1.605102,0.13143 -1.699381,1.00266 -3.963647,0.29681 -4.822006,-1.50319 -0.364905,-0.76521 -0.575071,-0.91309 -1.297706,-0.91309 -1.250927,0 -2.262981,-0.97095 -2.455772,-2.35605 -0.115868,-0.83244 -0.335211,-1.22794 -0.855615,-1.54276 -0.679714,-0.4112 -0.732537,-0.39533 -1.840118,0.55272 -2.071504,1.77313 -4.091504,1.87879 -5.901752,0.3087 -0.422816,-0.36673 -0.804482,-0.66677 -0.848145,-0.66677 -0.04366,0 -0.51801,0.29765 -1.054102,0.66145 -1.437816,0.97573 -3.270883,0.75959 -4.32447,-0.5099 -0.249107,-0.30016 -0.611318,-0.3695 -1.32988,-0.2546 -1.706723,0.27292 -3.448603,-1.02496 -3.448603,-2.56956 0,-0.53095 -0.193497,-0.78293 -0.79141,-1.03059 -1.149161,-0.476 -1.957786,-1.90735 -1.761358,-3.11779 0.08628,-0.5317 0.398297,-1.29327 0.693365,-1.69237 0.29807,-0.40316 0.536486,-1.1364 0.536486,-1.64994 0,-1.32503 0.475202,-2.18622 1.465709,-2.65625 0.474772,-0.22529 0.98703,-0.40962 1.13835,-0.40962 0.378195,0 0.481294,-0.22395 0.693405,-1.50618 l 0.183506,-1.10931 -0.803906,0.30344 c -0.653896,0.24682 -0.974452,0.22211 -1.717874,-0.1324 -0.502683,-0.23971 -0.991698,-0.68075 -1.086701,-0.98007 -0.105684,-0.33298 -0.399709,-0.54423 -0.757488,-0.54423 -1.358143,0 -2.647419,-1.77633 -2.364286,-3.25745 0.106464,-0.55693 -0.0255,-0.92247 -0.525336,-1.45514 -1.201081,-1.27998 -1.163036,-3.09668 0.09293,-4.43775 0.48955,-0.52272 0.494288,-0.6043 0.09115,-1.56914 -0.709714,-1.69859 -0.04489,-3.42827 1.621657,-4.219097 0.739584,-0.350956 0.910547,-0.581253 0.910547,-1.226559 0,-1.269618 0.663148,-2.245984 1.847273,-2.719776 0.590619,-0.236319 1.295681,-0.429671 1.566806,-0.429671 0.764388,0 0.872014,-0.962904 0.159785,-1.429574 -0.845196,-0.553794 -1.669053,-1.97719 -1.859587,-3.212852 -0.134833,-0.874424 -0.02923,-1.252263 0.64343,-2.302175 0.668593,-1.043563 0.761037,-1.370997 0.546431,-1.935453 -0.718901,-1.890853 0.206883,-4.11415 2.113951,-5.076716 0.648699,-0.327422 1.498161,-0.595312 1.887694,-0.595312 0.602134,0 0.7347,-0.141033 0.884841,-0.941357 0.09713,-0.517746 0.403823,-1.135911 0.68154,-1.3737 0.426154,-0.364885 0.480707,-0.664194 0.349628,-1.91829 -0.148584,-1.421571 -0.119522,-1.516062 0.670823,-2.181093 0.454374,-0.382331 0.826135,-0.948786 0.826135,-1.258789 0,-1.75221 1.981833,-3.113662 4.592013,-3.154559 0.965062,-0.01512 1.480318,-0.184711 2.070821,-0.681587 0.894367,-0.75256 2.217355,-0.872549 3.010033,-0.272998 0.720415,0.544894 0.843488,0.508532 1.305998,-0.385864 0.225017,-0.435135 0.882918,-1.032867 1.462003,-1.328294 1.296934,-0.661647 1.326974,-1.106147 0.12277,-1.816645 -1.024259,-0.604328 -1.534093,-1.594393 -1.300435,-2.525363 0.111616,-0.444711 -0.06263,-0.818099 -0.661026,-1.416494 -1.043966,-1.043966 -1.099993,-2.323229 -0.151136,-3.450881 0.459189,-0.545715 0.661458,-1.103021 0.661458,-1.822493 0,-1.211063 0.615688,-2.000194 1.931915,-2.476148 0.573417,-0.20735 0.990711,-0.587229 1.171653,-1.066599 0.173589,-0.45989 0.545317,-0.810878 0.972287,-0.918041 0.43239,-0.108523 0.751539,-0.413698 0.852241,-0.814927 0.19856,-0.791127 1.34889,-1.41671 2.605062,-1.41671 0.744085,0 1.007161,-0.136751 1.238085,-0.643576 0.383019,-0.840633 1.564123,-1.311442 2.855463,-1.138237 0.854354,0.114593 1.137234,0.02806 1.632807,-0.499448 1.383332,-1.47249 4.053857,-1.379361 5.37215,0.187341 0.587117,0.697749 0.872362,0.813899 2.115341,0.861358 0.958816,0.03661 1.614105,0.215393 1.970007,0.537479 0.519172,0.469844 0.559347,0.462749 1.517408,-0.268 0.830866,-0.633733 1.286661,-0.765901 2.926932,-0.848731 1.068548,-0.05396 1.942814,-0.131015 1.942814,-0.171236 0,-0.04022 -0.17786,-0.414161 -0.395245,-0.830977 -0.611861,-1.173191 -0.489669,-2.090813 0.415732,-3.122008 0.447831,-0.510051 0.736665,-1.05288 0.641854,-1.206287 -0.262183,-0.42422 0.103007,-1.739796 0.661797,-2.384086 0.287477,-0.331463 0.933508,-0.632509 1.528634,-0.712332 0.860842,-0.115464 1.080362,-0.275185 1.331818,-0.969026 0.390645,-1.077901 1.216867,-1.57156 2.69429,-1.609811 0.978929,-0.02535 1.346533,-0.188643 2.065192,-0.917407 0.833426,-0.845144 0.940149,-0.878832 2.283839,-0.720908 1.079873,0.126918 1.486332,0.07316 1.737803,-0.229846 0.180535,-0.217531 0.608266,-0.395511 0.950513,-0.395511 0.413148,0 0.750338,-0.247662 1.003364,-0.736961 0.545994,-1.055837 1.489173,-1.477829 2.938037,-1.314521 1.071437,0.120766 1.27081,0.06107 1.630773,-0.488306 0.225556,-0.344241 0.824139,-0.881778 1.330169,-1.194526 0.76002,-0.469715 1.17605,-0.542214 2.39157,-0.416762 0.80932,0.08353 1.59741,0.277787 1.7513,0.431682 0.44467,0.444668 1.07586,0.326512 1.44919,-0.271283 0.18929,-0.303101 0.84566,-0.772928 1.45859,-1.04406 1.25164,-0.553657 2.74049,-0.387976 3.61353,0.402116 0.38027,0.344133 0.6055,0.378481 1.0216,0.155793 0.6662,-0.35654 2.071,-0.372789 2.28506,-0.02643 0.0915,0.148056 0.80742,0.198919 1.66926,0.118593 1.79576,-0.167369 2.36131,0.09417 1.93323,0.894041 -0.94895,9.993333 19.1319,14.920131 25.87172,18.291945 1.45307,0.741303 2.58154,2.335987 2.80554,3.964617 0.22117,1.608092 1.0893,2.550608 2.11272,2.293746 0.482,-0.120974 0.72943,-0.398211 0.83745,-0.938319 0.1228,-0.614004 0.42082,-0.881683 1.49702,-1.344654 2.43733,-1.048511 4.88708,-0.184081 5.8844,2.076392 l 0.44683,1.012772 1.67025,-0.01887 c 2.10229,-0.02375 2.95347,0.540354 3.69359,2.447869 0.44023,1.13463 0.64033,1.364494 1.19062,1.367764 1.14629,0.0068 2.24522,0.885815 2.60382,2.08272 0.19611,0.654541 0.48833,1.094232 0.72723,1.094232 1.35465,0 2.75437,1.661815 2.75437,3.270111 0,0.479161 0.18394,0.687179 0.7276,0.822862 1.54349,0.385209 2.26492,1.940179 1.6794,3.619791 -0.25415,0.729056 -0.22182,0.925016 0.23232,1.408427 1.15086,1.225038 0.8042,3.524451 -0.67774,4.495456 -0.69569,0.455835 -0.90002,1.729186 -0.27747,1.729186 0.64565,0 1.75547,1.077383 1.75547,1.704158 0,0.512325 0.17201,0.630487 1.09871,0.754784 1.53698,0.206153 2.38061,1.117889 2.53811,2.743021 0.11111,1.146444 0.23248,1.348575 1.16061,1.932972 1.37075,0.863096 1.80149,2.16651 1.30017,3.934336 -0.86643,3.055308 -0.71668,3.842212 0.85975,4.517953 0.61597,0.264032 1.26677,0.656978 1.44623,0.873213 0.27345,0.329494 0.16238,0.467063 -0.68595,0.849609 -4.32859,1.951918 0.0756,6.023447 2.39025,5.510057 0.71563,-0.15874 0.86252,-1.088577 0.27521,-1.742093 -0.82856,-0.921951 -0.8763,-1.131753 -0.47029,-2.066822 0.30952,-0.712836 0.38728,-0.772863 0.3956,-0.305383 0.006,0.348131 0.38859,0.870343 0.95199,1.300069 1.7547,1.338377 2.20405,3.332269 1.13923,5.055169 l -0.56496,0.91412 0.56496,1.00521 c 0.91449,1.62711 0.61953,3.15111 -0.8108,4.18932 -0.33804,0.24536 -0.47632,0.6946 -0.47632,1.54749 0,0.99725 -0.13667,1.32943 -0.80315,1.95201 -0.63931,0.59721 -0.76813,0.88978 -0.63148,1.43421 0.20941,0.83438 -0.31276,2.18653 -0.98291,2.54518 -0.27983,0.14977 -0.49287,0.55087 -0.49287,0.92796 0,0.67241 -1.04965,1.96304 -1.5965,1.96304 -0.4345,0 -0.0642,1.50217 0.69639,2.82524 0.78078,1.35812 0.82224,2.80705 0.10636,3.71715 -0.34967,0.44453 -0.52917,1.07335 -0.52917,1.8538 0,0.9742 -0.14067,1.31249 -0.80305,1.93125 -0.44168,0.41259 -1.20404,0.8825 -1.69414,1.04424 -0.63102,0.20826 -0.9424,0.50291 -1.06695,1.00964 -0.28736,1.1692 -0.84736,1.82275 -1.70961,1.9952 -0.53941,0.10788 -0.812,0.31986 -0.81266,0.63197 -0.002,0.8887 -0.99339,2.12728 -1.95773,2.44554 -0.51774,0.17087 -1.06518,0.23415 -1.21652,0.14061 -0.15135,-0.0935 -0.63906,0.13612 -1.08381,0.51035 -0.85745,0.7215 -2.01724,0.88009 -2.91652,0.39881 -0.44543,-0.23838 -0.68045,-0.12268 -1.53092,0.75367 -1.64515,1.69521 -3.75541,1.62975 -7.46464,-0.23157 -0.95621,-0.47983 -0.95848,-0.47959 -1.56748,0.16866 -0.33543,0.35705 -0.75617,0.64919 -0.93497,0.64919 -0.1788,0 -0.68191,0.44478 -1.11801,0.9884 -0.71382,0.88979 -0.90776,0.9837 -1.9439,0.94123 -0.63303,-0.0259 -1.47138,0.0766 -1.86301,0.22788 -1.07183,0.41403 -2.48491,-0.17112 -4.09845,-1.69714 -1.32516,-1.25328 -1.42601,-1.29934 -2.23079,-1.01879 -1.2824,0.44705 -2.14303,0.35621 -3.14777,-0.33224 -0.88069,-0.60346 -0.95369,-0.61126 -2.02039,-0.21592 -1.55553,0.57652 -3.01128,0.13031 -3.81441,-1.16919 -0.42803,-0.69256 -0.71848,-0.90711 -1.0948,-0.8087 -0.61656,0.16123 -2.0192,-0.2772 -2.66006,-0.83147 -0.25528,-0.22079 -0.5887,-0.864 -0.74093,-1.42936 -0.17672,-0.65626 -0.48723,-1.10925 -0.85878,-1.25283 -0.82718,-0.31964 -1.71081,-1.35774 -1.81573,-2.13312 -0.0773,-0.57104 -0.20881,-0.65204 -0.96228,-0.59254 -0.48003,0.0379 -1.56643,0.41908 -2.41422,0.84704 -2.37284,1.19781 -3.98994,3.42536 -7.40222,10.19654 -1.37385,2.72622 -1.66431,2.78057 -0.92468,0.17301 1.1156,-3.933 4.21332,-9.54464 7.28406,-13.19533 3.36844,-4.00462 4.72318,-5.32541 6.20679,-6.05128 1.2811,-0.62678 1.66892,-0.69186 3.48657,-0.58506 1.33761,0.0786 2.94422,0.42037 4.64399,0.98792 2.2507,0.75152 2.92181,1.12773 5.00967,2.80826 2.21754,1.78491 2.5501,1.96235 4.14802,2.21322 3.15814,0.4958 3.72158,0.46087 3.72158,-0.23074 0,-0.52477 -0.25944,-0.63691 -3.08914,-1.33526 -1.30109,-0.3211 -4.38074,-2.54418 -4.26622,-3.07962 0.0436,-0.20397 1.38901,-1.11536 2.98974,-2.02531 2.17012,-1.23364 2.93192,-1.80407 2.99496,-2.24266 0.13267,-0.92298 -0.50723,-0.74879 -4.26064,1.15979 l -3.43758,1.74797 -2.54316,-1.21182 c -2.48686,-1.18498 -5.09149,-2.01955 -6.30292,-2.01955 -0.33323,0 -0.60587,-0.11186 -0.60587,-0.24858 0,-0.13672 0.97677,-1.53571 2.17061,-3.10885 1.19383,-1.57315 2.637,-3.48171 3.20703,-4.24125 1.37847,-1.8367 2.67241,-2.43317 6.22764,-2.87074 3.13606,-0.38598 3.60879,-0.52744 6.17426,-1.8477 2.06181,-1.06105 2.39332,-1.09241 4.04858,-0.38288 1.58918,0.68121 3.44638,0.68437 4.55606,0.008 0.99956,-0.60946 2.4554,-2.5201 2.4554,-3.22246 0,-0.61273 -0.9141,-0.63278 -4.63021,-0.10155 -2.86424,0.40946 -3.6413,0.64463 -6.91226,2.09189 -1.18237,0.52315 -2.73018,1.07263 -3.43958,1.22106 -2.01784,0.42221 -5.39087,0.7197 -5.39087,0.47546 0,-0.12144 0.4058,-1.02659 0.90177,-2.01146 0.77047,-1.52995 1.43499,-2.27416 4.56406,-5.111399 2.01427,-1.8264 3.9217,-3.458052 4.23874,-3.625894 0.33358,-0.176598 1.47957,-0.277632 2.72006,-0.239812 1.66927,0.05089 2.19929,-0.02247 2.39519,-0.331519 0.17625,-0.278056 0.12746,-0.489766 -0.16297,-0.707147 -0.56047,-0.419506 -4.19104,-0.737799 -5.13501,-0.450188 -0.41752,0.127211 -2.69001,2.017231 -5.04997,4.200043 -3.92499,3.630366 -4.48172,4.262016 -6.52968,7.408336 -3.25284,4.99738 -8.19976,10.78298 -11.47524,13.42069 -0.67292,0.5419 -3.14868,2.8413 -5.50167,5.10978 -2.66124,2.56565 -4.44405,4.09256 -4.71703,4.03999 -0.24137,-0.0465 -0.52609,-0.44088 -0.6327,-0.87645 -0.36744,-1.50111 -1.02015,-7.94048 -1.01785,-10.04169 0.003,-2.43887 1.39247,-10.73041 2.11915,-12.64289 1.39158,-3.66234 3.3573,-6.033539 8.45277,-10.19634 1.3749,-1.123242 2.72307,-2.425376 2.99594,-2.89363 0.46336,-0.795156 1.2437,-4.135315 1.64003,-7.019983 0.16462,-1.198194 0.14307,-1.25677 -0.46239,-1.25677 -0.58149,0 -0.70798,0.251076 -1.49959,2.976562 -1.05727,3.640126 -1.60478,4.919779 -2.42589,5.669906 -0.83408,0.761969 -3.68204,2.466031 -4.12142,2.466031 -0.42296,0 -0.45031,-2.344591 -0.0825,-7.073721 0.13847,-1.780494 0.18707,-3.40586 0.10799,-3.611924 -0.13506,-0.351974 -0.72295,-0.428445 -1.01886,-0.132532 -0.23361,0.233605 -0.95783,5.814202 -1.16523,8.978893 -0.19967,3.04664 -0.20387,3.061322 -1.44882,5.058762 -1.49124,2.392585 -2.38533,4.765516 -4.31985,11.464896 -1.40595,4.86891 -1.99511,6.34039 -2.46956,6.16799 -0.12498,-0.0454 -1.10711,-1.33273 -2.18252,-2.8607 -1.0754,-1.52797 -2.63047,-3.71065 -3.45572,-4.8504 -0.82524,-1.13975 -1.63174,-2.55989 -1.79222,-3.15586 -0.18276,-0.67873 -0.25852,-3.06784 -0.20278,-6.394388 0.10225,-6.101296 -0.29179,-4.965128 3.72113,-10.729337 2.48191,-3.565041 2.92866,-4.654463 1.82469,-4.449565 -0.23635,0.04387 -1.56083,1.588755 -2.94327,3.433085 -1.86708,2.490874 -2.55607,3.239254 -2.6789,2.909794 -0.71821,-1.926466 -1.81792,-6.320649 -1.81312,-7.244784 0.003,-0.624938 0.23299,-2.505468 0.51053,-4.178958 0.41171,-2.482417 0.44194,-3.107089 0.16419,-3.392336 -0.60602,-0.622376 -1.08785,0.270626 -1.74608,3.236112 -0.34207,1.541132 -0.70253,2.802057 -0.80101,2.802057 -0.0985,0 -1.170988,-1.101328 -2.383338,-2.447395 -2.063715,-2.291334 -3.079318,-2.949613 -3.340739,-2.165351 -0.05171,0.155124 1.176439,1.812736 2.729215,3.683581 2.777402,3.346321 2.835872,3.444819 3.601872,6.067955 1.08832,3.726902 1.17589,5.770044 0.47738,11.137848 -0.32158,2.471234 -0.67539,4.587772 -0.78625,4.703412 -0.29872,0.3116 -4.294056,-3.014859 -5.71248,-4.756123 -1.867272,-2.292273 -2.730414,-4.245307 -3.471274,-7.854461 -0.723839,-3.52624 -1.37681,-6.011172 -1.660704,-6.319936 -0.100851,-0.109686 -0.378383,-0.05016 -0.616739,0.132291 -0.401103,0.307019 -0.398856,0.578002 0.03018,3.639012 0.375818,2.681347 0.398021,3.323466 0.11731,3.392752 -0.459244,0.113353 -5.243243,-2.54019 -6.069781,-3.366729 -0.357075,-0.357075 -1.170596,-1.43174 -1.807823,-2.388146 -1.378145,-2.068436 -2.004207,-2.668567 -4.697959,-4.503375 -1.123085,-0.764973 -3.096222,-2.509742 -4.384747,-3.877264 l -2.342774,-2.486404 -1.568377,0.01573 c -0.918492,0.0092 -2.224708,0.255889 -3.152311,0.595313 -3.398355,1.243508 -1.720657,2.343711 4.903535,3.215645 0.866348,0.114037 1.495617,0.420694 2.248958,1.095968 0.575314,0.515695 2.143689,1.765331 3.485279,2.776967 2.512265,1.894393 3.327443,2.77622 4.255565,4.603504 0.85328,1.679932 2.59821,3.137283 5.872888,4.904984 1.67349,0.903365 3.25545,1.828831 3.515469,2.056591 0.260018,0.22776 1.007989,1.536663 1.662157,2.908674 1.665361,3.492823 2.369966,4.432005 6.5892,8.782877 2.408288,2.48342 4.381908,4.81624 5.596088,6.61458 4.23286,6.26933 5.19635,8.13652 6.48503,12.56771 0.7923,2.72433 0.78575,6.63479 -0.0184,10.98021 -1.3981,7.5552 -1.99942,13.69702 -3.05669,31.22083 -0.77018,12.7655 -0.94944,15.05281 -1.51374,19.31458 -1.13886,8.60121 -0.68652,13.70489 1.62978,18.38854 1.73776,3.51382 6.08983,8.44265 9.25924,10.48631 1.31093,0.8453 1.99852,0.95621 2.22757,0.35931 0.20206,-0.52654 -0.0207,-1.04493 -1.93151,-4.49562 -1.74207,-3.14591 -2.66296,-5.67171 -2.66296,-7.30391 0,-1.25603 0.31175,-1.31002 0.98487,-0.17057 0.95957,1.62433 4.9146,6.00669 6.7169,7.44262 1.36058,1.084 2.34258,1.61148 3.99634,2.14662 1.20588,0.3902 3.70439,1.42474 5.55225,2.29897 1.84786,0.87423 3.80088,1.63051 4.34005,1.68062 1.20999,0.11246 1.90656,0.94156 1.06302,1.26526 -0.46871,0.17986 -6.05972,-0.46492 -9.82114,-1.13262 -7.13102,-1.26585 -18.28355,-1.91635 -23.13195,-1.34923 -1.51746,0.1775 -4.341396,0.73186 -6.275402,1.23191 l -3.516375,0.90918 -6.953762,-0.0354 c -5.198919,-0.0265 -7.683163,0.0727 -9.844089,0.39317 -3.600352,0.53393 -4.914882,0.55217 -4.914882,0.0682 z m 19.79382,-7.45588 c 2.110857,-1.05602 3.187297,-2.29013 4.564452,-5.23305 0.783431,-1.67415 0.990722,-3.48709 0.398713,-3.48709 -0.135377,0 -0.980115,1.26393 -1.877196,2.80872 -2.03741,3.50848 -3.124515,4.87066 -4.557394,5.71056 -1.123472,0.65854 -1.445008,1.13801 -0.763153,1.13801 0.19873,0 1.20429,-0.42172 2.234578,-0.93715 z m 9.155649,-7.33108 c 0.0513,-0.1819 0.22568,-1.64168 0.38752,-3.24395 0.40869,-4.0462 1.50528,-10.62401 2.27112,-13.62323 0.7214,-2.82515 1.20022,-6.23425 1.20022,-8.54528 0,-1.31945 -0.0669,-1.53481 -0.45369,-1.46032 -0.35979,0.0693 -0.51674,0.57982 -0.75833,2.4668 -0.32264,2.52002 -0.73363,4.23443 -1.83895,7.67109 -1.18308,3.67838 -2.681096,15.27174 -2.15161,16.65155 0.18907,0.49272 1.21039,0.55607 1.34372,0.0833 z m 4.56168,-43.6179 c 0.49652,-3.01701 0.33933,-6.35097 -0.44154,-9.36491 -1.18753,-4.58353 -4.81004,-10.25509 -8.426169,-13.1924 -5.77703,-4.69256 -11.281357,-10.44654 -14.757109,-15.42643 -2.638537,-3.78037 -2.605571,-3.6327 -1.831153,-8.20243 0.361116,-2.1309 0.594403,-3.97495 0.518416,-4.0979 -0.235509,-0.38106 -0.869895,-0.24642 -1.128302,0.23948 -0.135433,0.25466 -0.448704,1.29646 -0.696157,2.3151 -1.054202,4.33965 -1.18668,4.66727 -1.810131,4.47651 -1.135379,-0.34738 -5.418288,-4.0775 -6.561112,-5.71426 -0.382836,-0.54831 -1.322853,-2.57771 -2.088926,-4.50979 -1.496428,-3.77408 -1.837862,-4.3353 -2.486158,-4.08653 -0.604943,0.23214 -0.542095,0.66845 0.749849,5.20565 0.641982,2.25459 1.207529,4.27388 1.256771,4.48731 0.135091,0.58553 -2.648078,1.09849 -5.334427,0.98319 -2.238925,-0.0961 -2.262308,-0.10448 -5.241049,-1.87788 -2.352661,-1.40066 -3.070225,-1.7165 -3.35771,-1.47791 -0.201091,0.1669 -0.300607,0.47286 -0.221146,0.67994 0.187344,0.48821 5.498934,4.03601 6.369721,4.25457 0.366809,0.0921 2.722662,0.10566 5.235229,0.0302 l 4.568302,-0.13717 1.836413,1.48891 c 1.010027,0.8189 2.540446,1.93977 3.40093,2.49083 0.860485,0.55106 1.826623,1.3845 2.146976,1.85209 0.320352,0.46758 1.368628,1.86219 2.329502,3.09911 0.960874,1.23693 2.56388,3.61818 3.562236,5.29167 2.028735,3.40066 2.652732,4.06237 6.622678,7.02294 7.126851,5.31482 9.955026,8.19836 11.889976,12.12278 1.98804,4.03208 2.91861,8.24897 2.92452,13.25251 0.003,2.51921 0.44759,1.96655 0.96957,-1.2052 z m -0.89557,-22.99202 c 2.41585,-2.82239 2.68642,-8.71013 0.68424,-14.88952 -0.92172,-2.84473 -2.83633,-6.60794 -3.9899,-7.84227 -0.65691,-0.70289 -0.93496,-0.82975 -1.49836,-0.68365 -0.38047,0.0987 -1.048956,0.19876 -1.485519,0.22243 -0.474475,0.0257 -1.08158,0.33571 -1.509327,0.77065 -0.547515,0.55671 -0.967808,0.7276 -1.789528,0.7276 -0.590672,0 -1.290224,-0.13507 -1.55456,-0.30015 -0.377459,-0.23572 -0.632226,-0.2008 -1.187034,0.16272 -0.579638,0.3798 -0.706425,0.66203 -0.706425,1.5725 0,1.31801 -0.397496,1.93643 -1.613629,2.51045 -0.762271,0.35979 -0.922674,0.59494 -1.048727,1.53739 -0.161371,1.20651 -0.758754,2.03004 -1.901082,2.62076 -1.025111,0.53011 -0.934007,1.37806 0.318268,2.96231 2.236315,2.82915 5.473888,5.5995 9.801419,8.38695 6.021234,3.8784 6.067464,3.89225 7.480164,2.24183 z M 67.685268,129.1628 c 3.1003,-1.15357 3.293507,-1.19063 6.206886,-1.19063 1.754298,0 3.870906,0.17961 5.080776,0.43115 2.826117,0.58756 3.627286,0.5991 3.735997,0.0538 0.06386,-0.32032 -0.469514,-0.71657 -1.948333,-1.44744 -1.9723,-0.97477 -2.151376,-1.01192 -5.700333,-1.18263 l -3.664063,-0.17626 -4.038277,-2.67909 c -3.6236,-2.40399 -4.071779,-2.63344 -4.364523,-2.23447 -0.258606,0.35245 -0.258606,0.52727 0,0.84321 0.393312,0.48051 4.838742,3.79671 5.700135,4.25218 0.336264,0.1778 0.572375,0.44032 0.524689,0.58338 -0.09909,0.29728 -4.765897,2.3499 -5.342708,2.3499 -0.209072,0 -1.587269,-0.54593 -3.06266,-1.21319 -2.649175,-1.1981 -3.566939,-1.32361 -3.399744,-0.46494 0.119678,0.61464 5.161326,3.25616 6.224809,3.26143 0.466094,0.002 2.287401,-0.53158 4.047349,-1.18642 z M 159.00367,108.10196 C 0,0 0,0 159.00367,108.10196 Z m -94.901053,1.89598 c 0.305908,-0.49497 -4.408957,-4.65273 -5.013211,-4.42086 -0.644522,0.24733 -0.467467,0.791 0.592217,1.8185 2.380675,2.30836 4.009965,3.26742 4.420994,2.60236 z m 1.685322,-11.850637 c -0.617475,-0.752311 -3.92212,-2.757947 -4.394365,-2.667 -0.848148,0.163338 -0.460896,0.847334 1.132319,1.999994 2.207087,1.596784 3.108672,1.991069 3.394337,1.484427 0.133219,-0.23627 0.08128,-0.557216 -0.132291,-0.817421 z M 177.23171,85.957564 c -0.84323,-0.483946 -1.05815,-0.988157 -1.06367,-2.495436 -0.003,-0.752278 -0.15738,-1.086839 -0.65211,-1.411004 -0.67247,-0.440614 -1.6855,-0.317668 -2.05943,0.24994 z M 75.159747,82.329028 c 0.708463,-0.285186 0.554147,-0.597222 -0.396875,-0.802504 -0.472943,-0.102087 -1.852237,-0.594758 -3.065098,-1.094824 -1.212861,-0.500066 -2.461801,-0.872485 -2.775422,-0.827598 -0.95847,0.137183 -0.829954,0.947874 0.334927,2.112755 l 1.085433,1.085433 2.177007,-0.143438 c 1.197354,-0.07889 2.385366,-0.227312 2.640028,-0.329824 z m 47.286633,-2.738665 c 0.0805,-0.343486 0.57449,-0.938798 1.09779,-1.322917 1.96901,-1.445335 4.46609,-3.532451 4.46609,-3.732859 0,-0.114419 -0.16293,-0.343258 -0.36207,-0.508531 -0.2807,-0.232957 -0.65479,-0.106439 -1.66442,0.562916 -0.71629,0.474876 -1.53562,1.013956 -1.82074,1.197955 -0.28511,0.184 -0.8648,0.563342 -1.28818,0.842983 l -0.76979,0.508437 -1.18112,-2.636605 -1.18112,-2.636605 0.69414,-1.546753 c 1.28596,-2.865516 0.66094,-4.804813 -0.9387,-2.912523 -1.95223,2.309395 -1.97449,3.458816 -0.14818,7.649647 0.66587,1.527969 1.29511,3.254375 1.3983,3.836458 0.24527,1.383438 0.3281,1.500658 0.99215,1.404193 0.33325,-0.04841 0.61868,-0.333823 0.70585,-0.705796 z m 42.41914,-9.115584 c 0.32081,-0.336589 0.79383,-1.004894 1.05117,-1.485123 0.39241,-0.732299 0.58231,-0.85127 1.17723,-0.737543 1.65959,0.31725 2.78051,-1.102878 1.76031,-2.230187 -1.64353,-1.816078 -4.68034,-1.635462 -5.92776,0.352557 -0.43075,0.686485 -0.5288,1.199888 -0.45354,2.374909 0.14704,2.295989 1.15556,3.023269 2.39259,1.725387 z m -4.12782,-3.99532 c 0.70528,-0.60666 0.74235,-0.75104 0.74235,-2.891015 0,-2.580246 -0.3989,-3.401417 -2.05177,-4.223729 -0.66542,-0.331052 -1.05135,-0.756195 -1.25981,-1.387829 -0.49667,-1.504923 -3.02523,-3.294293 -4.65517,-3.294293 -0.89961,0 -1.95512,1.114088 -1.95512,2.063632 0,0.825368 0.47267,1.359294 1.71523,1.937506 0.43405,0.201981 1.02936,0.777933 1.32291,1.279893 0.29356,0.50196 1.03995,1.408865 1.65865,2.015345 0.90724,0.889311 1.17586,1.378026 1.38816,2.525553 0.18071,0.976737 0.47555,1.609516 0.94036,2.018174 0.85966,0.755808 1.234,0.748294 2.15421,-0.04324 z m -47.503,126.844791 c -1.15998,-2.00963 -1.603,-3.62137 -1.92303,-6.99619 -0.45325,-4.77972 0.21741,-6.39462 0.80643,-1.9418 0.43078,3.2566 1.30332,7.50943 1.7912,8.73045 0.65128,1.62998 0.22258,1.76187 -0.6746,0.20754 z m -2.15182,-22.15885 c 0.01,-2.52276 1.26481,-18.62406 1.4661,-18.81049 0.10294,-0.0953 0.11007,1.19585 0.0158,2.86934 -0.0942,1.67349 -0.28535,5.12631 -0.42472,7.67292 -0.43099,7.87528 -0.59381,9.78958 -0.83267,9.78958 -0.12677,0 -0.22782,-0.68461 -0.22455,-1.52135 z m 5.30661,-26.67882 c 0.0127,-0.30822 0.0754,-0.37092 0.15985,-0.15985 0.0764,0.19099 0.067,0.4192 -0.0209,0.50712 -0.0879,0.0879 -0.15045,-0.0684 -0.13896,-0.34727 z m -3.98964,-2.97701 c 0,-1.73942 0.1261,-4.39559 0.28021,-5.90259 0.28593,-2.79584 1.18005,-7.86035 1.43226,-8.11255 0.43208,-0.43209 0.41081,0.61708 -0.0886,4.36808 -0.76414,5.73941 -1.0947,9.03094 -1.0947,10.90028 0,0.87028 -0.11907,1.6559 -0.26459,1.74584 -0.17075,0.10553 -0.26458,-0.95805 -0.26458,-2.99906 z M 138.8783,43.829666 c -0.17276,-0.87814 -0.60077,-1.907954 -1.0189,-2.45155 -0.87518,-1.137764 -2.59723,-2.305939 -3.39929,-2.305939 -0.44326,0 -0.66737,-0.240574 -0.91056,-0.977453 -0.17743,-0.537598 -0.84766,-1.538796 -1.48942,-2.224884 -1.34153,-1.434206 -1.15546,-1.840261 0.54558,-1.190625 0.87452,0.333981 1.28413,0.719394 1.8979,1.785786 0.62311,1.082617 1.05243,1.481223 2.10561,1.954991 0.72761,0.327307 1.58342,0.875838 1.90181,1.218957 0.65096,0.701524 1.6554,2.777581 1.66426,3.439816 0.007,0.496654 0.52852,0.753324 1.5488,0.761722 0.78644,0.0065 3.11592,0.979723 2.88874,1.206906 -0.0797,0.07974 -0.6205,0.01694 -1.20169,-0.139562 -0.58119,-0.156498 -1.21829,-0.224264 -1.41577,-0.15059 -0.19749,0.07367 -0.91259,0.235805 -1.58911,0.360293 z M 128.14256,33.482293 c -0.43657,-0.121816 -1.56766,-0.151273 -2.51354,-0.06546 -1.95981,0.177799 -2.18375,0.02794 -3.55838,-2.381258 l -0.73589,-1.289726 0.84003,0.495976 c 0.46202,0.272787 1.0804,0.751728 1.37417,1.064315 0.46347,0.493153 0.73702,0.54994 2.06789,0.429261 1.47088,-0.133375 1.57576,-0.100592 2.55801,0.799572 1.14434,1.048702 1.13667,1.2735 -0.0323,0.947319 z"
         id="path1"
         sodipodi:nodetypes="sssssssssscsssscscsssssssssssssssssssscssssssssssssssssssssssssssssssssssssssssssssssssssssssssssssssssssssssscssssscsssssssssssssssssssssscsscssssssssssssssscssssssssscssssssssssssssssssssssssssscsssssssscsssssssssssssssssscssssssssssssssssssssssscssssssssssssssssssssccssssssssssscsssssssssssssssscssssssssssscsssssssccsssssssssssssssssscccssssssssssssscsssssssssssssssssscsssssssscsssssssssssssccsccssssscssssssssscccssssssssssssssssssssssssssssssscscssccsssssssssssscsssssssscssssccssscssssss" /></g></g></svg>
